<svg width="34" height="34" viewBox="0 0 34 34" fill="none" xmlns="http://www.w3.org/2000/svg">
<g id="4829872_arrow_next_right_icon 1">
<g id="Layer 2">
<path id="Vector" d="M1.0625 17C1.0625 13.8479 1.99722 10.7665 3.74845 8.14561C5.49969 5.5247 7.98879 3.48195 10.901 2.27568C13.8132 1.06941 17.0177 0.75379 20.1093 1.36874C23.2008 1.98369 26.0406 3.50159 28.2695 5.73049C30.4984 7.95939 32.0163 10.7992 32.6313 13.8908C33.2462 16.9823 32.9306 20.1868 31.7243 23.099C30.5181 26.0112 28.4753 28.5003 25.8544 30.2516C23.2335 32.0028 20.1521 32.9375 17 32.9375C12.7731 32.9375 8.71935 31.2584 5.73049 28.2695C2.74162 25.2807 1.0625 21.2269 1.0625 17ZM30.8125 17C30.8125 14.2682 30.0024 11.5976 28.4847 9.32619C26.9669 7.05474 24.8097 5.28436 22.2858 4.23892C19.7619 3.19349 16.9847 2.91995 14.3053 3.45291C11.626 3.98587 9.1648 5.30138 7.23309 7.23309C5.30137 9.16481 3.98586 11.626 3.4529 14.3053C2.91995 16.9847 3.19348 19.7619 4.23891 22.2858C5.28435 24.8097 7.05473 26.9669 9.32619 28.4847C11.5976 30.0024 14.2681 30.8125 17 30.8125C20.6633 30.8125 24.1766 29.3573 26.7669 26.7669C29.3573 24.1766 30.8125 20.6633 30.8125 17Z" fill="#28D5DA"/>
<path id="Vector_2" d="M12.8881 22.9393L18.8169 16.9999L12.8881 11.0605C12.6902 10.8614 12.5792 10.5921 12.5792 10.3114C12.5792 10.0308 12.6902 9.76146 12.8881 9.56238C13.0872 9.36449 13.3565 9.25342 13.6372 9.25342C13.9179 9.25342 14.1872 9.36449 14.3863 9.56238L21.1438 16.3199C21.3228 16.5009 21.4233 16.7453 21.4233 16.9999C21.4233 17.2545 21.3228 17.4989 21.1438 17.6799L14.3863 24.4374C14.1872 24.6353 13.9179 24.7464 13.6372 24.7464C13.3565 24.7464 13.0872 24.6353 12.8881 24.4374C12.6902 24.2383 12.5792 23.969 12.5792 23.6883C12.5792 23.4076 12.6902 23.1383 12.8881 22.9393Z" fill="#28D5DA"/>
</g>
</g>
</svg>
