<svg width="34" height="34" viewBox="0 0 34 34" fill="none" xmlns="http://www.w3.org/2000/svg">
<g id="4829872_arrow_next_right_icon 2">
<g id="Layer 2">
<path id="Vector" d="M32.9375 17C32.9375 20.1521 32.0028 23.2335 30.2515 25.8544C28.5003 28.4753 26.0112 30.5181 23.099 31.7243C20.1868 32.9306 16.9823 33.2462 13.8907 32.6313C10.7992 32.0163 7.95938 30.4984 5.73049 28.2695C3.50159 26.0406 1.98369 23.2008 1.36873 20.1092C0.753784 17.0177 1.0694 13.8132 2.27567 10.901C3.48194 7.98878 5.52469 5.49968 8.1456 3.74845C10.7665 1.99721 13.8479 1.06249 17 1.06249C21.2269 1.06249 25.2807 2.74162 28.2695 5.73048C31.2584 8.71934 32.9375 12.7731 32.9375 17ZM3.1875 17C3.1875 19.7318 3.99759 22.4024 5.51533 24.6738C7.03306 26.9453 9.19028 28.7156 11.7142 29.7611C14.2381 30.8065 17.0153 31.08 19.6947 30.5471C22.374 30.0141 24.8352 28.6986 26.7669 26.7669C28.6986 24.8352 30.0141 22.374 30.5471 19.6947C31.0801 17.0153 30.8065 14.2381 29.7611 11.7142C28.7157 9.19027 26.9453 7.03305 24.6738 5.51532C22.4024 3.99758 19.7319 3.18749 17 3.18749C13.3367 3.18749 9.82343 4.64273 7.23309 7.23308C4.64274 9.82343 3.1875 13.3367 3.1875 17Z" fill="#28D5DA"/>
<path id="Vector_2" d="M21.1119 11.0607L15.1831 17.0001L21.1119 22.9395C21.3098 23.1386 21.4208 23.4079 21.4208 23.6886C21.4208 23.9692 21.3098 24.2385 21.1119 24.4376C20.9128 24.6355 20.6435 24.7466 20.3628 24.7466C20.0821 24.7466 19.8128 24.6355 19.6137 24.4376L12.8562 17.6801C12.6772 17.4991 12.5767 17.2547 12.5767 17.0001C12.5767 16.7455 12.6772 16.5011 12.8562 16.3201L19.6137 9.56262C19.8128 9.36472 20.0821 9.25365 20.3628 9.25365C20.6435 9.25365 20.9128 9.36472 21.1119 9.56262C21.3098 9.76169 21.4208 10.031 21.4208 10.3117C21.4208 10.5924 21.3098 10.8617 21.1119 11.0607Z" fill="#28D5DA"/>
</g>
</g>
</svg>
