<svg width="419" height="386" viewBox="0 0 419 386" fill="none" xmlns="http://www.w3.org/2000/svg">
<path d="M328.553 322.695C328.553 333.961 328.553 345.228 328.553 356.725C254.541 356.725 180.822 356.725 106.695 356.725C106.695 275.781 106.695 194.933 107.016 113.697C114.037 113.745 120.709 113.826 127.246 112.069C127.306 113.798 127.342 115.177 127.342 116.557C127.344 187.86 127.344 259.162 127.344 330.465C127.344 331.563 127.344 332.662 127.344 334.293C127.963 333.302 128.25 332.841 128.6 332.64C128.923 333.673 129.183 334.446 129.546 335.358C130.024 335.399 130.4 335.301 131.098 335.148C188.575 335.089 245.731 335.083 302.887 335.083C303.574 335.083 304.261 335.16 305.006 335.305C305.243 335.345 305.422 335.281 305.795 335.169C306.122 335.125 306.256 335.127 306.649 335.037C307.171 333.903 307.66 332.862 307.66 331.821C307.697 278.699 307.697 225.577 307.655 172.455C307.655 171.437 307.108 170.419 306.691 169.191C306.25 168.636 305.933 168.29 305.553 167.831C305.303 167.799 305.117 167.881 304.614 168.032C292.938 168.106 281.58 168.133 270.221 168.109C257.835 168.082 245.449 168.007 232.939 167.78C232.21 167.72 231.605 167.833 230.724 167.827C230.447 142.546 230.447 117.385 230.447 91.9377C202.629 91.9377 175.357 91.9377 148.13 91.6864C150.669 85.8581 151.257 79.9944 150.925 73.9623C150.862 72.8269 151.288 71.6645 151.686 70.7324C152.556 71.0557 153.228 71.2533 153.899 71.2532C187.723 71.249 221.547 71.2279 255.37 71.2086C267.131 83.3136 278.895 95.4152 290.651 107.525C295.933 112.966 301.197 118.424 306.767 124.206C313.206 130.919 319.245 137.405 325.547 143.625C327.792 145.84 328.514 148.087 328.508 151.173C328.412 206.854 328.429 262.536 328.429 318.217C328.429 319.71 328.51 321.202 328.553 322.695ZM252.793 146.933C253.234 147.035 253.675 147.226 254.117 147.226C267.691 147.245 281.266 147.259 294.84 147.214C295.665 147.212 296.488 146.721 297.193 146.015C286.579 134.936 275.968 123.855 265.349 112.781C261.464 108.73 257.543 104.714 253.683 100.64C252.885 99.7982 252.371 99.3042 251.825 100.633C251.584 100.544 251.344 100.455 251.103 100.366C251.078 100.586 251.031 100.807 251.031 101.028C251.031 115.342 251.02 129.655 251.081 143.968C251.084 144.591 251.752 145.211 252.328 146.127C252.362 146.245 252.395 146.362 252.793 146.933Z" fill="#0CEAEF"/>
<path d="M328.812 322.686C328.51 321.202 328.429 319.71 328.429 318.217C328.429 262.536 328.412 206.854 328.508 151.173C328.514 148.088 327.792 145.841 325.547 143.625C319.245 137.405 313.206 130.919 306.963 124.346C307.629 123.837 308.489 123.114 309.149 123.265C320.646 125.887 331.763 129.326 342.068 135.451C351.126 140.835 359.388 147.041 366.551 154.678C376.036 164.788 383.189 176.322 388.044 189.409C392.854 202.377 395.116 215.638 394.757 229.402C394.455 240.933 392.157 252.053 388.084 262.854C384.536 272.265 379.846 281 373.699 288.962C373.224 289.579 373.021 290.406 372.451 291.254C369.087 289.539 367.36 290.319 367.207 293.734C367.1 296.104 367.186 298.482 367.186 301.214C364.499 301.214 362.23 301.159 359.963 301.227C356.511 301.332 355.71 302.921 357.434 306.111C349.16 312.76 340.431 318.654 330.396 322.377C329.975 322.533 329.513 322.58 328.812 322.686Z" fill="#0CEAEF" fill-opacity="0.26"/>
<path d="M105.923 294.363C105.923 310.121 105.873 325.534 105.971 340.946C105.987 343.61 105.321 344.702 102.523 345.719C88.6976 350.748 75.1538 349.807 62.1165 343.785C49.4958 337.955 40.4182 328.326 35.5479 315.109C29.6625 299.138 30.7676 283.784 39.4599 268.957C47.1715 255.804 58.6942 247.726 73.1794 244.325C82.9405 242.033 92.9901 242.531 102.636 246.123C104.92 246.974 106.027 248.158 105.997 250.886C105.839 265.262 105.923 279.64 105.923 294.363Z" fill="#0CEAEF" fill-opacity="0.26"/>
<path d="M151.488 70.5151C151.288 71.665 150.862 72.8274 150.925 73.9628C151.257 79.995 150.669 85.8586 148.025 91.9062C146.84 94.1624 145.888 96.0025 144.756 97.7237C140.731 103.841 134.903 107.861 128.49 111.348C128.332 111.334 128.023 111.407 127.868 111.398C127.498 111.429 127.329 111.539 127.205 111.719C120.709 113.826 114.037 113.745 107.025 113.377C102.223 111.236 97.3634 109.554 93.3089 106.72C80.9123 98.057 75.5296 83.2509 78.9551 68.8315C82.3945 54.3536 94.2008 43.4029 108.956 41.0045C126.722 38.1168 144.053 49.079 149.604 66.673C149.957 67.7916 150.631 68.8089 151.387 70.0984C151.619 70.3234 151.488 70.5151 151.488 70.5151ZM120.823 60.0648C115.549 56.8274 110.105 57.6088 106.745 62.0854C101.8 68.6728 101.743 82.5263 106.634 89.172C110.45 94.3578 118.294 94.3039 122.427 89.3729C127.31 83.5481 127.553 65.0842 120.823 60.0648Z" fill="#0CEAEF"/>
<path d="M293.095 65.7821C279.256 70.3456 263.253 63.2582 258.844 47.8996C255.046 34.6679 261.912 20.2263 275.485 15.4272C290.288 10.1931 305.133 18.0369 309.83 31.8022C314.246 44.7452 309.222 59.7192 293.095 65.7821Z" fill="#0CEAEF" fill-opacity="0.26"/>
<path d="M83.1118 158.954C83.1184 140.263 90.6134 125.235 105.594 113.2C105.594 142.58 105.594 171.457 105.594 200.26C97.9306 197.181 86.234 182.168 84.1062 164.891C85.7757 164.56 87.2506 164.863 88.4737 164.439C89.6095 164.046 90.4766 162.877 91.462 162.05C90.4979 161.048 89.6942 159.528 88.5316 159.169C86.8621 158.653 84.9312 158.984 83.1118 158.954Z" fill="#0CEAEF" fill-opacity="0.26"/>
<path d="M45.8723 230.749C41.2518 236.874 36.8102 237.511 30.921 235.681C24.4162 233.659 20.9092 228.257 21.7069 221.781C22.4953 215.379 26.7162 209.344 36.9325 210.05C42.7544 210.452 48.0475 215.968 47.7997 222.373C47.693 225.131 46.6791 227.854 45.8723 230.749Z" fill="#0CEAEF" fill-opacity="0.26"/>
<path d="M82.8159 158.975C84.9313 158.984 86.8622 158.653 88.5317 159.168C89.6943 159.527 90.498 161.048 91.4621 162.049C90.4767 162.877 89.6096 164.045 88.4738 164.439C87.2507 164.862 85.7758 164.56 84.0976 164.616C81.7526 164.212 80.7581 164.845 80.9254 167.103C81.0606 168.929 81.2635 170.873 80.7815 172.579C80.4596 173.719 78.989 174.534 78.0325 175.495C77.1333 174.505 75.69 173.632 75.4473 172.501C74.928 170.082 75.0297 167.529 74.8473 164.544C72.4631 164.544 70.2059 164.517 67.9497 164.553C66.0205 164.583 64.0766 164.116 64.6384 161.856C64.9256 160.701 66.7845 159.431 68.1263 159.156C70.3111 158.709 72.6542 159.036 75.365 159.036C75.365 156.466 75.0607 154.154 75.4751 151.979C75.7386 150.595 77.0691 149.415 77.9211 148.144C78.9314 149.344 80.3825 150.401 80.835 151.784C81.3443 153.341 80.7983 155.213 81.0252 156.906C81.1257 157.656 81.9979 158.302 82.8159 158.975Z" fill="#0CEAEF"/>
<path d="M357.706 306.205C355.71 302.921 356.511 301.332 359.963 301.227C362.23 301.159 364.499 301.214 367.186 301.214C367.186 298.482 367.1 296.104 367.207 293.734C367.36 290.319 369.087 289.539 372.422 291.5C372.66 293.573 372.885 295.542 372.667 297.461C372.307 300.617 373.674 301.577 376.6 301.23C377.955 301.07 379.471 300.87 380.685 301.313C381.834 301.733 382.684 302.971 383.665 303.849C382.718 304.801 381.879 306.395 380.801 306.576C378.358 306.989 375.798 306.706 372.713 306.706C372.713 309.067 372.7 311.19 372.717 313.312C372.732 315.214 372.809 317.198 370.127 317.239C367.316 317.283 367.206 315.23 367.193 313.186C367.18 311.246 367.19 309.307 367.19 307.076C364.001 306.807 360.99 306.553 357.706 306.205Z" fill="#0CEAEF"/>
<path d="M151.686 70.7327C151.488 70.5148 151.618 70.3231 151.634 70.2084C185.461 70.1033 219.273 70.1129 253.547 70.233C254.374 70.441 254.739 70.5385 255.104 70.636C255.104 70.636 255.268 70.908 255.319 71.0584C221.547 71.2281 187.723 71.2493 153.899 71.2535C153.228 71.2536 152.556 71.0559 151.686 70.7327Z" fill="#1450A6"/>
<path d="M254.997 70.4482C254.739 70.5386 254.374 70.4411 253.866 70.22C254.112 70.151 254.501 70.2057 254.997 70.4482Z" fill="#87C2E6"/>
<path d="M128.648 111.363C134.903 107.86 140.73 103.841 144.756 97.7234C145.888 96.0022 146.84 94.1621 147.979 92.1573C175.357 91.938 202.629 91.938 230.447 91.938C230.447 117.385 230.447 142.546 230.978 167.882C232.027 168.023 232.545 167.988 233.063 167.953C245.449 168.007 257.835 168.082 270.221 168.109C281.58 168.134 292.938 168.106 304.787 168.073C305.39 168.011 305.503 167.977 305.617 167.944C305.933 168.29 306.25 168.636 306.6 169.5C306.62 223.798 306.607 277.58 306.583 331.361C306.582 332.617 306.456 333.874 306.389 335.13C306.255 335.127 306.122 335.125 305.633 335.126C305.277 335.13 304.948 335.201 304.948 335.201C304.261 335.16 303.574 335.084 302.887 335.084C245.731 335.083 188.575 335.089 130.877 335.107C130.037 335.152 129.74 335.186 129.443 335.219C129.183 334.446 128.923 333.673 128.648 332.318C128.641 259.52 128.648 187.305 128.649 115.09C128.649 114.518 128.572 113.946 128.594 113.128C128.654 112.376 128.651 111.869 128.648 111.363ZM206.28 244.639C207.086 244.053 208.058 243.605 208.672 242.86C214.587 235.685 224.968 235.575 230.793 242.755C232.033 244.283 233.268 245.342 235.098 243.996C236.912 242.663 236.321 241.086 235.266 239.472C228.785 229.558 210.533 229.61 204.209 239.6C202.802 241.822 202.728 243.725 206.28 244.639ZM243.15 206.704C240.328 207.994 238.533 210.288 239.573 213.207C240.219 215.018 242.292 217.073 244.086 217.501C245.719 217.89 248.538 216.731 249.55 215.329C250.56 213.93 250.58 211.166 249.947 209.387C249.004 206.735 246.386 206.108 243.15 206.704ZM185.108 214.858C187.566 217.899 190.457 218.716 193.121 217.016C195.697 215.372 196.406 212.941 195.498 210.125C194.631 207.434 191.684 205.964 188.82 206.584C185.466 207.311 184.062 210.073 185.108 214.858Z" fill="#121212"/>
<path d="M252.104 100.916C252.371 99.3046 252.885 99.7987 253.683 100.641C257.543 104.714 261.464 108.73 265.349 112.781C275.968 123.855 286.579 134.937 296.93 146.244C281.921 146.474 267.175 146.477 252.429 146.48C252.395 146.363 252.361 146.245 252.266 145.662C252.171 130.436 252.137 115.676 252.104 100.916Z" fill="#121212"/>
<path d="M128.531 113.374C128.572 113.946 128.649 114.518 128.649 115.09C128.648 187.305 128.641 259.52 128.586 332.058C128.25 332.841 127.963 333.302 127.344 334.293C127.344 332.662 127.344 331.564 127.344 330.465C127.344 259.163 127.344 187.86 127.342 116.557C127.342 115.178 127.306 113.798 127.246 112.069C127.329 111.539 127.498 111.429 127.87 111.61C128.196 112.345 128.363 112.859 128.531 113.374Z" fill="#1E57A6"/>
<path d="M306.649 335.037C306.456 333.874 306.582 332.618 306.583 331.361C306.607 277.58 306.62 223.798 306.725 169.709C307.107 170.419 307.654 171.437 307.655 172.455C307.697 225.577 307.697 278.699 307.66 331.821C307.66 332.863 307.171 333.903 306.649 335.037Z" fill="#0B4CA0"/>
<path d="M251.965 100.775C252.137 115.676 252.171 130.436 252.157 145.514C251.752 145.211 251.084 144.592 251.081 143.969C251.02 129.656 251.031 115.342 251.032 101.029C251.032 100.808 251.078 100.587 251.103 100.366C251.344 100.455 251.585 100.545 251.965 100.775Z" fill="#1450A6"/>
<path d="M252.611 146.707C267.175 146.477 281.921 146.474 296.99 146.465C296.488 146.722 295.665 147.212 294.84 147.215C281.266 147.26 267.691 147.246 254.117 147.227C253.675 147.226 253.234 147.036 252.611 146.707Z" fill="#0B4CA0"/>
<path d="M232.938 167.78C232.545 167.988 232.027 168.022 231.255 168.002C231.605 167.833 232.209 167.72 232.938 167.78Z" fill="#1450A6"/>
<path d="M129.546 335.358C129.74 335.185 130.037 335.152 130.555 335.16C130.4 335.301 130.024 335.399 129.546 335.358Z" fill="#1857A7"/>
<path d="M305.553 167.831C305.503 167.977 305.39 168.011 305.104 168.003C305.117 167.881 305.303 167.8 305.553 167.831Z" fill="#1450A6"/>
<path d="M305.006 335.306C304.949 335.201 305.277 335.13 305.439 335.173C305.422 335.281 305.243 335.346 305.006 335.306Z" fill="#1857A7"/>
<path d="M121.038 60.2075C127.553 65.0837 127.31 83.5477 122.427 89.3724C118.294 94.3035 110.45 94.3573 106.634 89.1715C101.743 82.5258 101.8 68.6724 106.745 62.085C110.105 57.6083 115.549 56.827 121.038 60.2075ZM108.45 82.6211C108.707 83.3808 108.904 84.1671 109.231 84.8953C110.302 87.2785 111.557 89.43 114.698 89.316C117.924 89.1989 119.374 87.0405 120.129 84.3908C121.831 78.4215 121.902 72.3746 120.079 66.421C119.268 63.7731 117.642 61.5881 114.47 61.6706C111.471 61.7487 109.671 63.9016 109.335 66.4373C108.649 71.6032 108.583 76.8512 108.45 82.6211Z" fill="#F9FBFE"/>
<path d="M128.594 113.128C128.363 112.859 128.196 112.345 128.025 111.618C128.023 111.407 128.332 111.334 128.49 111.348C128.651 111.869 128.654 112.376 128.594 113.128Z" fill="#2B62AD"/>
<path d="M206.014 244.638C202.728 243.724 202.802 241.822 204.209 239.6C210.533 229.609 228.785 229.557 235.266 239.472C236.321 241.086 236.911 242.663 235.098 243.996C233.268 245.342 232.032 244.282 230.793 242.755C224.967 235.575 214.587 235.684 208.671 242.86C208.058 243.604 207.086 244.053 206.014 244.638Z" fill="#0CEAEF"/>
<path d="M243.396 206.644C246.386 206.108 249.004 206.734 249.947 209.387C250.58 211.166 250.56 213.93 249.551 215.328C248.538 216.731 245.719 217.89 244.086 217.501C242.292 217.073 240.219 215.018 239.573 213.206C238.533 210.288 240.328 207.994 243.396 206.644Z" fill="#0CEAEF"/>
<path d="M184.974 214.636C184.062 210.073 185.466 207.311 188.82 206.584C191.684 205.963 194.631 207.434 195.498 210.125C196.406 212.94 195.697 215.371 193.121 217.016C190.457 218.716 187.566 217.899 184.974 214.636Z" fill="#0CEAEF"/>
<path d="M108.356 82.3433C108.583 76.8513 108.649 71.6034 109.335 66.4374C109.671 63.9017 111.47 61.7488 114.47 61.6707C117.642 61.5882 119.267 63.7732 120.078 66.4211C121.902 72.3747 121.831 78.4216 120.129 84.391C119.374 87.0407 117.924 89.199 114.697 89.3162C111.557 89.4302 110.302 87.2786 109.231 84.8954C108.904 84.1673 108.707 83.3809 108.356 82.3433Z" fill="#0CEAEF"/>
</svg>
