<svg width="605" height="462" viewBox="0 0 605 462" fill="none" xmlns="http://www.w3.org/2000/svg">
<path d="M451.088 318.948C453.23 319.13 455.17 319.133 457.107 319.217C458.998 319.299 460.297 320.205 460.211 322.219C460.133 324.061 458.906 324.859 457.102 324.857C454.752 324.856 452.402 324.89 449.778 324.98C447.051 325.489 444.772 325.919 443.91 328.942C443.311 331.046 443.369 332.086 445.826 331.995C446.34 331.975 446.838 332.152 447.409 332.625C460.813 332.831 474.079 332.872 487.344 332.917C488.269 332.92 489.207 332.864 490.114 332.998C491.589 333.216 492.6 334.064 492.642 335.634C492.689 337.33 491.706 338.319 490.081 338.575C489.176 338.718 488.236 338.661 487.312 338.662C473.015 338.675 458.718 338.683 444.136 338.754C443.516 339.245 443.048 339.584 442.539 339.511C439.012 339.007 437.233 341.146 435.412 343.723C425.467 357.799 412.165 368.314 398.282 378.151C392.578 382.193 386.747 386.05 381.293 390.796C380.018 391.698 378.921 392.479 377.385 392.816C375.075 391.214 372.986 389.651 370.691 388.01C365.568 383.375 359.819 379.943 354.4 376.067C340.187 365.899 327.108 354.565 317.272 339.921C316.204 338.33 314.84 338.675 313.478 338.674C289.621 338.656 265.763 338.66 241.905 338.665C211.261 338.671 180.616 338.683 149.69 338.763C149.303 338.927 149.196 339.02 148.929 338.974C147.964 338.7 147.134 338.644 146.359 338.411C145.008 338.005 144.368 336.973 144.412 335.607C144.458 334.19 145.322 333.3 146.665 333.052C147.664 332.868 148.712 332.919 149.738 332.918C164.855 332.909 179.972 332.908 195.089 332.906C196.094 332.905 197.099 332.906 199.141 332.906C196.235 330.218 194.237 327.862 192.427 325.357C191.868 324.583 190.892 324.919 190.102 324.909C186.812 324.866 183.52 324.841 180.231 324.883C178.293 324.908 176.875 324.135 176.829 322.163C176.778 320.02 178.236 319.169 180.309 319.201C182.879 319.242 185.452 319.165 188.021 319.215C189.279 319.24 189.671 318.849 189.282 317.591C188.108 313.791 188.337 309.864 188.337 305.96C188.334 254.542 188.346 203.124 188.263 151.706C188.259 149.421 189.003 147.865 190.525 146.346C212.786 124.115 235.016 101.854 257.278 79.6247C258.122 78.7827 258.85 77.6985 260.362 77.537C260.831 77.6658 261.113 77.6894 261.609 77.6457C262.842 77.5591 263.865 77.4603 264.888 77.4599C300.275 77.4464 335.662 77.4385 371.05 77.439C381.704 77.4391 389.717 82.2692 395.735 91.115C398.979 94.3697 399.905 98.3328 400.318 102.486C400.481 104.124 400.402 105.773 400.402 107.417C400.404 158.089 400.401 208.761 400.41 259.432C400.41 261.652 399.963 264.139 403.373 264.933C414.937 265.032 425.115 268.155 433.682 275.783C436.46 278.256 438.835 281.082 441.042 284.345C442.964 285.354 443.327 287.201 444.029 288.72C447.803 296.887 449.323 305.483 448.017 314.401C447.617 317.131 448.255 318.42 451.088 318.948Z" fill="#0CEAEF"/>
<path d="M510.762 165.85C512.691 161.075 516.011 159.114 520.416 159.948C524.317 160.685 527.173 164.329 527.032 168.387C526.9 172.172 523.86 175.592 520.005 176.208C515.336 176.955 509.371 173.437 510.762 165.85Z" fill="#0CEAEF"/>
<path d="M373.203 428.316C372.389 432.774 370.02 435.494 366.616 436.106C363.018 436.754 359.501 435.159 357.692 432.061C355.955 429.085 356.382 425.148 358.841 422.355C361.223 419.649 364.297 419.241 367.555 420.182C371.438 421.304 372.97 424.265 373.203 428.316Z" fill="#0CEAEF"/>
<path d="M560.178 354.115C558.507 355.472 559.129 356.443 560.236 357.524C561.691 358.946 563.035 360.675 561.136 362.532C559.211 364.413 557.389 363.398 555.902 361.627C554.644 360.127 553.522 360.455 552.4 361.797C550.973 363.503 549.223 364.347 547.409 362.593C545.675 360.916 546.584 359.139 548.042 357.787C549.689 356.259 549.287 355.099 547.88 353.705C546.553 352.389 545.78 350.709 547.367 349.119C549.015 347.467 550.811 348.039 552.217 349.545C553.591 351.018 554.719 351.423 556.165 349.658C557.606 347.899 559.357 347.347 561.13 349.207C562.893 351.058 561.721 352.553 560.178 354.115Z" fill="#0CEAEF"/>
<path d="M153.228 422.582C151.765 423.6 150.643 425.004 148.94 423.044C147.418 421.294 147.441 419.63 149.09 418.219C151.068 416.526 151.005 415.219 149.02 413.614C147.366 412.275 147.398 410.456 148.792 409.023C150.199 407.578 151.956 408.053 153.13 409.415C154.799 411.35 156.161 411.354 157.803 409.453C159.163 407.878 160.924 407.692 162.39 409.159C163.917 410.686 163.398 412.447 161.951 413.751C160.39 415.157 159.775 416.347 161.711 417.924C162.974 418.953 163.779 420.362 162.946 421.988C162.035 423.765 160.347 423.731 158.436 423.361C156.686 422.734 155.401 420.518 153.228 422.582Z" fill="#0CEAEF"/>
<path d="M83.9504 299.909C79.0085 300.469 75.9526 298.797 74.3632 294.816C72.9951 291.389 74.116 287.309 77.0021 285.211C80.4167 282.73 84.5349 282.825 87.7141 285.562C90.0999 287.616 90.8372 290.35 90.2724 293.343C89.6331 296.732 87.6788 299.068 83.9504 299.909Z" fill="#0CEAEF"/>
<path d="M377.139 392.959C378.224 391.974 379.284 391.171 380.552 390.286C382.364 391.971 381.642 393.923 381.055 396.076C380.902 396.301 380.87 396.367 380.853 396.401C379.539 395.401 377.383 395.338 377.139 392.959Z" fill="#DCDCDC"/>
<path d="M153.172 422.802C155.494 419.622 155.778 419.643 158.137 423.155C156.585 423.332 154.91 423.833 153.172 422.802Z" fill="#E6E6E6"/>
<path d="M403.656 264.795C399.458 265.602 399.457 265.602 399.457 261.467C399.455 209.924 399.435 158.381 399.48 106.838C399.485 101.471 398.513 96.4251 395.886 91.5027C397.598 91.1564 398.073 92.6463 398.706 93.71C401.637 98.6394 403.212 103.877 403.199 109.751C403.096 156.015 403.131 202.279 403.157 248.543C403.16 253.868 402.775 259.212 403.656 264.795Z" fill="#C4C4C4"/>
<path d="M381.12 396.281C380.873 394.459 380.845 392.618 380.788 390.491C386.483 385.043 392.977 380.919 399.236 376.479C413.691 366.223 427.092 354.866 437.106 340.002C438.782 337.515 441.24 339.124 443.579 338.755C443.023 342.787 440.161 345.601 437.876 348.632C433.808 354.031 429.345 359.158 424.267 363.669C416.317 370.734 408.123 377.498 399.171 383.286C393.832 386.738 388.922 390.761 383.983 394.743C383.169 395.399 382.336 395.957 381.12 396.281Z" fill="#C6C6C6"/>
<path d="M184.756 33.854C185.964 38.8549 184.994 41.9467 181.714 44.0691C179.062 45.7854 174.598 45.6429 172.147 43.6943C169.415 41.523 168.308 38.6978 169.124 35.2667C169.95 31.7926 172.591 29.3922 175.861 28.9824C179.849 28.4824 182.541 29.9072 184.756 33.854Z" fill="#0CEAEF"/>
<path d="M427.257 28.441C427.944 30.1418 427.804 31.5844 426.339 32.4008C424.819 33.2477 423.298 32.8505 422.212 31.4693C420.744 29.6029 419.459 29.496 417.896 31.4304C416.675 32.9407 415.047 33.5855 413.374 31.9973C411.735 30.4414 412.194 28.6594 413.575 27.3862C415.524 25.5907 415.29 24.294 413.434 22.6576C412.012 21.4036 411.864 19.679 413.289 18.3218C414.71 16.969 416.379 17.1311 417.601 18.6779C419.315 20.8467 420.796 20.7743 422.501 18.6711C423.735 17.1487 425.363 16.9677 426.802 18.3477C428.144 19.6345 428.043 21.4221 426.733 22.4609C423.839 24.7553 424.957 26.4671 427.257 28.441Z" fill="#0CEAEF"/>
<path d="M80.702 161.274C81.4481 161.817 82.1037 162.194 82.5261 162.749C83.7335 164.335 84.7989 164.114 85.9283 162.688C87.306 160.948 89.0078 160.051 90.8608 161.818C92.788 163.656 91.7524 165.362 90.0741 166.741C88.4274 168.094 88.8224 169.209 90.2048 170.471C91.7982 171.925 92.7367 173.752 90.8164 175.482C88.9406 177.172 87.1886 176.209 85.8653 174.44C84.6382 172.8 83.5873 173.225 82.377 174.478C80.9669 175.938 79.2602 177.343 77.3865 175.436C75.6373 173.657 76.498 171.751 78.1996 170.416C80.3478 168.731 79.2944 167.573 77.83 166.311C76.6148 165.264 76.112 163.849 76.8597 162.452C77.5831 161.101 78.8831 160.435 80.702 161.274Z" fill="#0CEAEF"/>
<path d="M451.281 318.805C446.416 319.384 446.447 319.388 447.091 314.775C448.576 304.149 446.305 294.247 441.225 284.7C441.956 282.759 442.483 283.843 442.951 284.673C447.908 293.468 452.052 302.499 451.299 312.988C451.167 314.823 451.275 316.675 451.281 318.805Z" fill="#C4C4C4"/>
<path d="M501.732 338.633C499.493 338.428 498.439 337.306 498.698 335.35C498.968 333.307 500.566 332.881 502.351 332.885C506.038 332.894 509.725 332.896 513.412 332.893C515.396 332.891 516.972 333.563 516.946 335.791C516.92 337.996 515.327 338.683 513.361 338.68C509.572 338.674 505.783 338.649 501.732 338.633Z" fill="#0CEAEF"/>
<path d="M135.357 338.659C131.308 338.675 127.52 338.654 123.733 338.676C121.745 338.688 120.164 338.023 120.119 335.844C120.074 333.653 121.644 332.887 123.628 332.882C127.416 332.871 131.204 332.888 134.993 332.896C136.702 332.899 138.122 333.483 138.375 335.326C138.644 337.284 137.574 338.396 135.357 338.659Z" fill="#0CEAEF"/>
<path d="M476.566 319.199C478.408 319.207 479.948 319.189 481.487 319.229C483.285 319.276 484.495 320.196 484.51 322.009C484.525 323.785 483.48 324.849 481.586 324.848C477.48 324.847 473.375 324.841 469.269 324.843C467.431 324.844 466.26 323.95 466.238 322.116C466.215 320.294 467.365 319.306 469.182 319.259C471.541 319.198 473.903 319.215 476.566 319.199Z" fill="#0CEAEF"/>
<path d="M152.844 320.773C153.43 319.826 154.084 319.318 154.958 319.308C159.35 319.258 163.744 319.176 168.134 319.263C169.74 319.294 170.845 320.395 170.847 322.034C170.85 323.839 169.701 324.839 167.898 324.856C163.811 324.895 159.721 324.929 155.636 324.835C153.2 324.78 152.1 323.481 152.844 320.773Z" fill="#0CEAEF"/>
<path d="M447.564 332.552C441.47 333.17 441.715 333.252 443.575 327.661C444.62 324.517 446.63 324.717 449.245 324.971C449.751 327.707 448.226 329.894 447.564 332.552Z" fill="#C4C4C4"/>
<path d="M261.673 77.5305C261.539 78.1186 261.236 78.5338 260.608 77.7599C260.876 77.5585 261.201 77.5038 261.673 77.5305Z" fill="#282828"/>
<path d="M137.326 281.798C137.304 281.762 137.348 281.833 137.326 281.798V281.798Z" fill="white"/>
<path d="M148.828 338.943C148.876 338.803 148.983 338.771 149.249 338.787C149.289 339.034 149.205 339.323 148.828 338.943Z" fill="#F3F3F3"/>
<path d="M114.209 191.337C114.27 191.315 114.331 191.294 114.301 191.306C114.211 191.338 114.209 191.337 114.209 191.337Z" fill="white"/>
<path d="M172.859 358.64C172.917 358.619 172.974 358.596 172.942 358.604C172.853 358.635 172.857 358.638 172.859 358.64Z" fill="white"/>
<path d="M221.009 84.533C220.951 84.5555 220.896 84.5807 220.929 84.5727C221.016 84.5396 221.011 84.5356 221.009 84.533Z" fill="white"/>
<path d="M386.355 89.2842C391.726 93.7855 393.811 99.5018 393.815 106.071C393.835 136.198 393.83 166.326 393.828 196.454C393.827 218.869 393.785 241.285 393.868 263.7C393.876 265.814 393.346 266.764 391.25 267.303C386.938 268.412 382.966 270.42 379.406 273.073C377.777 274.286 376.815 274.435 375.02 273.147C356.022 259.517 328.397 263.378 315.261 281.967C304.768 296.814 304.431 312.964 311.445 329.453C312.912 332.903 312.972 332.88 309.124 332.88C278.585 332.883 248.046 332.846 217.507 332.916C210.655 332.932 204.828 330.814 200.036 325.593C196.804 319.846 197.163 313.76 197.167 307.689C197.201 259.856 197.185 212.022 197.187 164.188C197.187 157.101 197.269 157.021 204.457 157.019C220.093 157.014 235.729 157.031 251.365 157.012C262.423 156.999 268.131 151.361 268.167 140.323C268.217 124.584 268.178 108.846 268.182 93.1067C268.183 91.8727 268.189 90.6395 268.259 89.4054C268.377 87.3167 269.424 86.2043 271.535 86.094C272.564 86.0403 273.591 86.024 274.62 86.0239C307.538 86.0222 340.455 86.0453 373.373 85.9961C377.92 85.9893 382.12 87.0038 386.355 89.2842Z" fill="#121212"/>
<path d="M431.002 281.911C435.184 284.841 437.27 289.109 438.911 293.492C444.421 308.201 441.673 321.952 433.477 334.892C424.024 349.816 410.904 361.045 396.688 371.16C390.755 375.381 384.88 379.684 379.005 383.986C377.996 384.725 377.273 385.618 375.863 384.448C366.776 376.909 356.507 370.967 347.409 363.431C339.338 356.745 331.729 349.617 325.31 341.055C324.894 339.653 324.065 338.779 323.056 337.788C322.92 337.639 322.797 337.443 322.783 337.328C318.002 328.721 315.176 319.698 315.893 309.872C317.004 294.641 323.861 282.951 338.206 276.844C348.667 272.391 359.419 272.754 369.883 277.518C371.947 278.458 373.269 280.528 375.71 281.351C375.915 281.499 375.961 281.48 375.948 281.502C377.22 282.668 379.044 282.882 380.299 284.162C380.927 284.804 381.85 284.276 382.551 283.803C383.486 283.173 384.475 282.593 385.306 281.849C391.541 276.272 399.258 274.477 407.179 274.056C414.889 273.645 422.527 274.689 429.084 280.009C429.307 280.089 429.511 280.1 429.596 280.156C429.797 280.377 429.931 280.527 430.2 280.754C430.319 280.847 430.439 280.983 430.444 281.074C430.432 281.47 430.538 281.72 431.002 281.911Z" fill="#0CEAEF"/>
<path d="M386.56 89.1825C386.033 89.3281 385.361 89.4274 384.831 89.1981C379.091 86.7162 373.04 86.9669 366.985 86.9746C335.609 87.0147 304.233 87.0323 272.857 86.9296C269.925 86.9201 269.039 87.6578 269.065 90.6659C269.209 107.536 269.094 124.408 269.151 141.279C269.181 150.28 263.082 158.288 252.476 158.075C235.509 157.733 218.529 158.045 201.556 157.929C198.88 157.911 198.075 158.563 198.079 161.34C198.164 212.57 198.15 263.801 198.116 315.031C198.114 317.667 198.523 320.125 199.773 322.448C200.198 323.237 200.829 324.044 200.043 325.207C195.725 321.405 194.024 316.279 194.017 310.688C193.955 259.361 194 208.034 193.948 156.707C193.946 154.505 194.64 153.993 196.753 154.003C213.93 154.083 231.107 154.075 248.285 154.029C256.857 154.006 262.836 149.644 264.525 142.232C264.863 140.749 264.89 139.173 264.893 137.64C264.918 120.566 264.961 103.491 264.855 86.4165C264.84 83.9826 265.291 83.0671 267.961 83.0745C302.418 83.1696 336.876 83.1633 371.334 83.1467C377.166 83.1439 382.199 85.0473 386.56 89.1825Z" fill="#DCDCDC"/>
<path d="M258.181 142.943C258.043 143.382 257.961 143.565 257.668 143.792C253.661 147.519 249.009 148.011 243.888 147.89C232.277 147.616 220.655 147.821 209.038 147.774C208.011 147.77 206.563 148.435 206.018 147.074C205.492 145.757 206.542 144.746 207.431 143.893C214.401 137.206 221.105 130.252 227.965 123.455C237.161 114.344 246.234 105.11 255.473 96.0426C255.84 95.6828 256.169 95.2849 256.55 94.9398C257.09 94.4512 257.667 93.9104 258.449 94.2897C259.123 94.6172 258.955 95.345 258.96 95.9387C258.979 98.2003 258.968 100.462 258.968 102.724C258.968 113.313 258.934 123.902 258.99 134.491C259.005 137.266 258.826 140.001 258.181 142.943Z" fill="#0CEAEF"/>
<path d="M258.221 143.007C257.141 141.201 258.678 139.52 258.674 137.645C258.646 123.879 258.662 110.113 258.654 96.3479C258.653 95.8582 258.553 95.3685 258.397 93.9533C254.358 98.1118 250.83 101.815 247.224 105.441C241.099 111.603 234.92 117.711 228.773 123.852C223.43 129.188 218.11 134.547 212.76 139.876C210.947 141.681 209.054 143.406 207.24 145.21C206.752 145.695 206.151 146.312 206.576 147.081C206.922 147.706 207.671 147.501 208.261 147.501C222.129 147.509 235.998 147.49 249.866 147.532C251.036 147.536 251.785 146.987 252.546 146.299C253.855 145.116 255.282 144.16 257.302 143.868C256.207 146.624 253.908 148.153 250.962 148.167C234 148.254 217.038 148.216 200.076 148.203C199.399 148.202 198.464 148.399 198.243 147.495C197.983 146.43 198.937 145.881 199.578 145.241C212.442 132.377 225.31 119.516 238.175 106.652C244.135 100.692 250.082 94.72 256.059 88.7777C256.839 88.002 257.479 86.9791 258.819 86.8057C259.688 87.7247 259.266 88.9075 259.269 89.9455C259.31 105.88 259.295 121.815 259.313 137.749C259.315 139.515 259.194 141.239 258.221 143.007Z" fill="#0CEAEF"/>
<path d="M375.857 281.299C374.338 281.752 373.135 280.92 371.991 280.055C365.095 274.839 357.113 274.332 348.983 274.985C344.741 275.325 340.571 276.373 336.701 278.34C331.865 280.799 327.838 284.118 324.476 288.447C321.858 291.817 320.149 295.482 318.757 299.448C315.491 308.748 316.099 317.946 319.166 327.104C320.253 330.352 321.606 333.512 322.803 336.962C319.999 335.142 319.164 331.834 317.582 329.016C309.427 314.491 311.023 295.194 321.831 282.615C327.499 276.019 335.131 272.204 343.723 271.173C355.758 269.73 366.734 272.535 375.857 281.299Z" fill="#0CEAEF"/>
<path d="M429.228 279.891C426.785 279.885 425.007 278.013 422.754 277.178C415.708 274.568 408.572 274.353 401.189 275.556C394.378 276.666 388.754 279.888 383.563 284.105C381.734 285.592 380.278 286.509 378.619 283.906C378.072 283.047 376.901 282.585 375.975 281.732C377.345 282.291 378.149 281.366 379.105 280.519C392.125 268.983 411.597 267.567 426.181 277.077C427.289 277.8 428.479 278.46 429.228 279.891Z" fill="#0CEAEF"/>
<path d="M322.918 337.846C324.467 337.9 325.294 338.788 325.292 340.615C324.202 340.159 323.415 339.228 322.918 337.846Z" fill="#0CEAEF"/>
<path d="M431.132 281.752C430.985 281.802 430.749 281.689 430.48 281.371C430.647 281.306 430.846 281.448 431.132 281.752Z" fill="#0CEAEF"/>
<path d="M430.273 280.688C430.145 280.733 429.972 280.62 429.739 280.359C429.863 280.318 430.045 280.424 430.273 280.688Z" fill="#0CEAEF"/>
<path d="M521.104 168.447C520.451 170.404 519.186 170.843 517.642 170.163C516.533 169.675 515.943 168.668 516.285 167.373C516.575 166.276 517.294 165.515 518.457 165.525C520.147 165.54 521.132 166.413 521.104 168.447Z" fill="#E6E6E6"/>
<path d="M367.257 428.877C365.832 430.795 364.366 430.95 362.934 429.291C362.206 428.447 362.264 427.417 362.906 426.481C363.552 425.537 364.484 425.169 365.545 425.54C366.972 426.039 367.563 427.128 367.257 428.877Z" fill="#E6E6E6"/>
<path d="M78.0025 297.416C74.0012 292.652 74.5061 288.295 79.181 285.577C81.2081 284.399 84.9825 284.923 86.9871 286.661C88.8356 288.263 89.6238 292.041 88.583 294.31C86.5513 298.739 82.5753 299.988 78.0025 297.416Z" fill="#0CEAEF"/>
<path d="M178.518 35.0046C179.999 36.3709 179.959 37.6477 178.742 38.8525C177.936 39.6499 176.869 39.758 175.918 39.2114C174.822 38.5811 174.447 37.4037 174.864 36.2931C175.451 34.7331 176.7 34.209 178.518 35.0046Z" fill="#DCDCDC"/>
<path d="M236.046 254.071C232.476 254.433 231.799 252.879 231.94 249.821C232.204 244.082 232.099 238.32 231.97 232.571C231.926 230.656 232.474 230.173 234.371 230.175C274.119 230.23 313.868 230.246 353.617 230.151C356.496 230.144 355.702 231.845 355.884 233.588C357.156 236.843 356.449 239.964 356.572 243.02C356.676 245.586 356.686 248.164 356.545 250.731C356.379 253.749 355.638 254.438 352.575 254.653C351.754 254.71 350.93 254.693 350.108 254.693C313.7 254.695 277.292 254.697 240.885 254.686C239.353 254.685 237.79 254.866 236.046 254.071Z" fill="#0CEAEF"/>
<path d="M236.059 196.533C232.513 196.856 231.811 195.291 231.944 192.242C232.193 186.495 232.101 180.727 231.967 174.972C231.923 173.05 232.467 172.599 234.357 172.601C274.048 172.65 313.739 172.658 353.43 172.552C356.392 172.544 355.746 174.278 355.909 176.167C356.422 177.392 356.583 178.397 356.586 179.44C356.6 183.863 356.656 188.287 356.566 192.709C356.49 196.44 355.743 197.121 351.952 197.263C351.232 197.29 350.512 197.281 349.792 197.281C313.687 197.281 277.582 197.285 241.477 197.27C239.744 197.27 237.967 197.513 236.059 196.533Z" fill="#0CEAEF"/>
<path d="M235.783 254.183C237.31 253.876 238.847 253.787 240.383 253.787C277.667 253.786 314.951 253.757 352.235 253.872C355.238 253.881 356 253.065 355.856 250.143C355.599 244.918 355.79 239.67 355.868 234.147C359.164 233.413 360.114 234.79 359.96 237.989C359.688 243.631 359.809 249.296 359.919 254.949C359.964 257.226 359.142 258.005 356.868 258.003C317.389 257.956 277.909 257.934 238.43 258.034C235.295 258.042 235.896 256.197 235.783 254.183Z" fill="#D7D7D7"/>
<path d="M235.813 196.613C237.035 196.311 238.264 196.227 239.494 196.227C277.109 196.222 314.725 196.193 352.34 196.294C355.188 196.302 355.962 195.514 355.848 192.731C355.634 187.499 355.804 182.251 355.896 176.726C359.291 175.931 360.094 177.469 359.958 180.592C359.711 186.238 359.806 191.905 359.923 197.559C359.972 199.886 359.066 200.579 356.835 200.576C317.749 200.533 278.664 200.532 239.578 200.573C236.91 200.576 235.411 199.793 235.813 196.613Z" fill="#D7D7D7"/>
<path d="M230.561 194.128C230.546 194.102 230.575 194.154 230.561 194.128V194.128Z" fill="#D7D7D7"/>
<path d="M80.0776 293.259C79.2733 291.669 79.5565 290.484 80.7853 289.56C81.6306 288.924 82.5296 289.105 83.3758 289.567C84.3867 290.118 84.7678 291.032 84.6214 292.142C84.3529 294.177 82.5662 294.701 80.0776 293.259Z" fill="#E6E6E6"/>
<path d="M350.155 242.566C350.171 248.173 350.171 248.176 344.775 248.177C310.219 248.178 275.662 248.141 241.106 248.245C238.253 248.254 237.293 247.49 237.591 244.679C237.817 242.544 237.755 240.356 237.601 238.207C237.46 236.24 238.266 235.813 240.09 235.815C275.983 235.855 311.876 235.85 347.769 235.799C349.654 235.796 350.374 236.36 350.179 238.254C350.043 239.577 350.153 240.925 350.155 242.566Z" fill="#00CCD0"/>
<path d="M333.367 190.615C302.416 190.616 271.773 190.579 241.13 190.683C238.315 190.693 237.265 189.991 237.592 187.135C237.824 185.105 237.779 183.014 237.598 180.974C237.401 178.761 238.249 178.225 240.371 178.243C251.784 178.34 263.198 178.288 274.612 178.288C298.674 178.287 322.736 178.331 346.797 178.221C349.496 178.209 350.503 178.848 350.188 181.616C349.864 184.456 351.345 188.209 349.667 189.972C347.823 191.909 344.022 190.452 341.079 190.592C338.616 190.708 336.144 190.616 333.367 190.615Z" fill="#00CCD0"/>
</svg>
