<svg width="38" height="38" viewBox="0 0 38 38" fill="none" xmlns="http://www.w3.org/2000/svg">
<circle cx="19" cy="19" r="19" fill="#0CEAEF"/>
<path d="M22.2656 11.9531C23.2685 11.9531 24.2303 12.3515 24.9394 13.0606C25.6485 13.7697 26.0469 14.7315 26.0469 15.7344V22.2656C26.0469 23.2685 25.6485 24.2303 24.9394 24.9394C24.2303 25.6485 23.2685 26.0469 22.2656 26.0469H15.7344C14.7315 26.0469 13.7697 25.6485 13.0606 24.9394C12.3515 24.2303 11.9531 23.2685 11.9531 22.2656V15.7344C11.9531 14.7315 12.3515 13.7697 13.0606 13.0606C13.7697 12.3515 14.7315 11.9531 15.7344 11.9531H22.2656ZM22.2656 10.5781H15.7344C14.3681 10.5822 13.059 11.1268 12.0929 12.0929C11.1268 13.059 10.5822 14.3681 10.5781 15.7344V22.2656C10.5822 23.6319 11.1268 24.941 12.0929 25.9071C13.059 26.8732 14.3681 27.4178 15.7344 27.4219H22.2656C23.6319 27.4178 24.941 26.8732 25.9071 25.9071C26.8732 24.941 27.4178 23.6319 27.4219 22.2656V15.7344C27.4178 14.3681 26.8732 13.059 25.9071 12.0929C24.941 11.1268 23.6319 10.5822 22.2656 10.5781Z" fill="black"/>
<path d="M23.4927 13.5C23.2979 13.5 23.1075 13.5578 22.9455 13.666C22.7835 13.7742 22.6573 13.928 22.5828 14.108C22.5082 14.2879 22.4887 14.4859 22.5267 14.677C22.5647 14.868 22.6585 15.0435 22.7963 15.1812C22.934 15.319 23.1095 15.4128 23.3005 15.4508C23.4916 15.4888 23.6896 15.4693 23.8695 15.3947C24.0495 15.3202 24.2033 15.194 24.3115 15.032C24.4197 14.87 24.4775 14.6796 24.4775 14.4848C24.4775 14.3555 24.452 14.2274 24.4025 14.108C24.353 13.9885 24.2805 13.8799 24.189 13.7885C24.0976 13.697 23.989 13.6245 23.8695 13.575C23.7501 13.5255 23.622 13.5 23.4927 13.5Z" fill="black"/>
<path d="M19.0463 15.9871C19.6474 15.9867 20.2352 16.1647 20.7352 16.4985C21.2351 16.8322 21.6249 17.3068 21.8551 17.8621C22.0853 18.4175 22.1456 19.0286 22.0284 19.6182C21.9112 20.2078 21.6218 20.7495 21.1967 21.1745C20.7716 21.5996 20.23 21.8891 19.6404 22.0063C19.0508 22.1235 18.4396 22.0631 17.8843 21.8329C17.329 21.6027 16.8544 21.213 16.5206 20.713C16.1869 20.213 16.0089 19.6253 16.0092 19.0241C16.0106 18.219 16.331 17.4474 16.9003 16.8781C17.4695 16.3088 18.2412 15.9884 19.0463 15.9871ZM19.0463 14.6121C18.1736 14.6138 17.321 14.8741 16.5963 15.3602C15.8715 15.8463 15.3072 16.5363 14.9745 17.3431C14.6418 18.1498 14.5557 19.0371 14.7271 19.8928C14.8985 20.7485 15.3197 21.5341 15.9375 22.1504C16.5553 22.7668 17.3419 23.1862 18.198 23.3556C19.0541 23.525 19.9411 23.4369 20.7471 23.1023C21.5531 22.7677 22.2418 22.2017 22.7262 21.4758C23.2106 20.7499 23.469 19.8968 23.4686 19.0241C23.4684 18.4439 23.3538 17.8694 23.1313 17.3336C22.9089 16.7977 22.583 16.311 22.1722 15.9012C21.7615 15.4914 21.274 15.1666 20.7376 14.9454C20.2012 14.7242 19.6265 14.6109 19.0463 14.6121Z" fill="black"/>
</svg>
