<svg width="570" height="466" viewBox="0 0 570 466" fill="none" xmlns="http://www.w3.org/2000/svg">
<g clip-path="url(#clip0_2610_6335)">
<path d="M298.358 512.711C198.929 512.711 100.057 512.711 1.14844 512.711C1.14844 322.971 1.14844 133.231 1.14844 -56.6152C190.995 -56.6152 380.879 -56.6152 570.937 -56.6152C570.937 133.09 570.937 322.9 570.937 512.711C480.335 512.711 389.625 512.711 298.358 512.711ZM127.879 251.041C133.158 270.8 138.246 290.613 143.772 310.303C148.983 328.871 154.454 347.291 152.629 366.996C151.965 374.163 152.543 381.443 152.504 388.672C152.496 390.26 152.277 391.848 152.159 393.387C142.08 394.41 135.05 398.986 131.421 408.093C127.826 417.113 130.166 425.432 135.735 434.014C107.016 434.014 79.2865 434.014 51.5913 434.014C51.5913 436.742 51.5913 438.875 51.5913 441.528C54.3239 441.528 56.6974 441.528 59.0709 441.528C156.106 441.528 253.142 441.528 350.177 441.528C372.07 441.528 393.963 441.523 415.857 441.53C431.664 441.535 443.165 430.786 442.166 415.745C441.559 406.608 437.5 400.273 430.051 396.258C422.354 392.11 414.143 392.453 406.279 396.626C399.447 400.251 396.582 406.723 394.668 413.516C387.678 413.516 381.217 413.516 374.817 413.516C371.847 402.524 363.889 394.206 354.942 393.907C349.761 393.733 344.181 394.389 339.388 396.241C331.861 399.15 328.617 406.201 326.834 413.534C300.103 413.534 273.97 413.534 247.541 413.534C245.209 402.324 238.163 395.693 227.519 393.277C227.519 377.652 227.519 362.548 227.519 347.472C228.452 347.27 228.981 347.055 229.51 347.055C286.84 347.025 344.171 346.988 401.501 347.113C403.057 347.117 404.989 348.558 406.092 349.875C409.615 354.083 412.31 359.099 416.256 362.816C432.239 377.868 450.935 385.307 473.333 382.691C494.802 380.184 511.124 369.87 523.346 352.327C532.748 338.832 535.23 323.819 534.436 307.79C533.844 295.845 529.895 284.933 523.21 275.496C507.946 253.951 486.578 243.809 459.814 244.831C461.895 221.855 463.955 199.108 466.071 175.747C458.143 174.964 450.318 174.235 442.503 173.411C429.013 171.989 415.53 170.508 402.044 169.05C394.383 168.222 386.72 167.416 379.063 166.556C366.859 165.184 354.666 163.708 342.454 162.403C330.773 161.155 319.069 160.128 307.387 158.893C294.461 157.527 281.551 156.006 268.628 154.608C260.598 153.739 252.551 153.019 244.521 152.154C231.757 150.778 219.02 149.123 206.234 148.007C198.952 147.372 192.473 146.307 187.286 140.081C180.57 132.018 172.822 124.82 165.706 117.078C163.003 114.137 160.52 110.896 158.478 107.47C155.97 103.262 152.783 101.145 147.752 101.161C114.912 101.265 82.0722 101.2 49.2323 101.226C42.1489 101.231 37.9679 105.208 37.8583 111.85C37.7353 119.297 42.1754 124.321 49.2188 124.531C53.297 124.652 57.4522 125.039 61.4493 124.458C70.575 123.132 76.9719 126.596 83.1252 133.322C92.6527 143.736 102.304 153.13 105.673 168.121C111.878 195.724 120.089 222.877 127.879 251.041ZM442.012 36.9112C445.236 27.0347 443.185 20.6225 434.494 13.7074C426.753 21.5863 416.832 27.9955 417.273 41.0784C403.594 40.0817 398.325 50.6645 390.612 57.6236C397.207 67.7767 409.117 68.8579 417.037 63.4581C419.441 61.8193 421.667 59.8258 423.662 57.7015C429.82 51.144 435.827 44.4448 442.012 36.9112ZM324.413 22.2515C320.385 22.2515 316.358 22.2515 312.562 22.2515C308.701 33.5633 319.792 45.4895 329.527 45.5701C338.413 45.6438 347.312 45.8684 356.184 45.518C369.335 44.9985 377.573 31.8247 374.343 22.7031C357.915 20.6652 349.933 22.3706 342.887 29.6194C338.544 23.7754 332.551 21.6676 324.413 22.2515ZM71.6554 369.473C71.153 371.414 70.378 373.331 70.1976 375.302C69.578 382.072 74.8607 388.938 81.5302 390.301C88.6773 391.762 95.9367 387.484 98.5504 380.271C100.747 374.21 97.4616 366.186 91.6413 363.395C83.7564 359.614 76.8817 361.512 71.6554 369.473ZM109.372 323.906C109.283 324.814 109.104 325.724 109.118 326.631C109.211 332.525 114.109 337.507 120.208 337.957C124.59 338.281 129.504 334.145 130.212 329.538C131.316 322.346 128.613 318.046 121.656 316.652C116.048 315.527 112.42 318.504 109.372 323.906ZM173.687 76.1713C169.925 79.7081 166.163 83.2449 162.165 87.0046C164.491 89.2222 166.276 90.9231 168.506 93.0488C172.442 88.8993 175.83 85.2486 179.306 81.6831C183.974 76.8941 183.938 76.4551 177.809 72.3063C176.648 73.3852 175.449 74.5007 173.687 76.1713ZM145.839 70.5479C145.839 73.237 145.839 75.9262 145.839 78.605C148.823 78.605 150.95 78.605 153.209 78.605C153.209 71.5527 153.209 64.8562 153.209 58.1967C150.652 58.1967 148.523 58.1967 145.839 58.1967C145.839 62.1838 145.839 65.8288 145.839 70.5479ZM176.536 107.795C183.17 108.354 189.804 108.914 196.751 109.5C196.751 106.134 196.751 104.006 196.751 101.598C189.731 101.598 182.998 101.598 176.071 101.598C176.071 103.629 176.071 105.276 176.536 107.795ZM289.507 110.739C290.526 111.968 291.546 113.198 292.714 114.607C293.907 113.962 295.199 113.368 296.378 112.599C297.51 111.862 298.524 110.945 299.596 110.101C292.938 102.385 292.719 102.391 289.507 110.739ZM257.754 100.115C256.645 102.421 255.537 104.727 254.211 107.483C257.967 108.186 260.658 108.689 263.576 109.235C263.576 106.076 263.576 103.769 263.576 101.805C261.718 101.177 260.208 100.667 257.754 100.115ZM342.944 55.6496C338.073 54.5969 337.952 58.1768 337.239 61.3284C339.301 62.8611 341.244 64.3042 343.484 65.969C344.807 62.7046 345.931 59.9296 347.013 57.2595C345.769 56.7525 344.78 56.349 342.944 55.6496ZM300.561 127.997C300.954 126.307 301.346 124.618 301.797 122.678C299.084 122.411 296.642 122.171 294.187 121.923C293.308 123.642 292.43 125.362 291.415 127.348C294.429 128.577 296.374 133.715 300.561 127.997ZM361.741 126.677C359.392 125.829 357.043 124.981 354.439 124.041C354.439 127.766 354.439 130.559 354.439 133.46C355.952 133.46 357.053 133.522 358.143 133.443C359.342 133.356 360.531 133.138 361.807 132.966C361.807 130.957 361.807 129.313 361.741 126.677ZM479.798 134.615C475.272 139.438 476.131 141.517 483.422 143.38C487.827 135.74 487.545 134.83 479.798 134.615ZM482.076 62.8966C479.673 64.2719 477.271 65.6472 474.728 67.103C476.411 69.4431 477.44 70.8728 478.573 72.4491C480.502 71.8337 482.394 71.2882 484.232 70.6018C484.682 70.4339 484.959 69.8044 485.448 69.2322C484.545 67.3448 483.617 65.4042 482.076 62.8966ZM256.132 65.0219C254.631 65.406 253.129 65.7902 251.637 66.1719C253.48 74.2214 253.48 74.2214 260.727 71.3125C258.861 69.3512 263.788 64.1298 256.132 65.0219ZM370.723 112.943C367.911 108.848 365.735 109.314 361.753 115.068C363.369 116.727 365.021 118.422 367.079 120.534C367.367 117.263 374.605 119.049 370.723 112.943ZM438.045 110.182C431.286 108.123 436.013 115.107 432.773 115.834C438.926 120.49 440.105 120.091 442.968 112.86C441.545 112.149 440.113 111.432 438.045 110.182ZM462.099 55.4108C462.099 57.5842 462.099 59.7577 462.099 61.6693C468.635 64.7693 470.401 61.5185 470.593 55.7033C467.958 55.344 465.324 54.9849 462.099 55.4108ZM443.175 128.383C444.456 133.775 448.258 132.475 452.281 131.879C451.598 128.884 450.983 126.186 450.148 122.525C447.406 124.444 445.256 125.95 443.175 128.383ZM240.386 83.3626C244.702 84.2257 247.051 82.3198 247.917 77.4103C245.683 76.5984 243.303 75.7332 240.922 74.868C240.267 77.5562 236.327 79.6892 240.386 83.3626ZM249.271 96.1911C246.496 91.357 243.207 91.1817 239.035 95.5211C240.65 97.7613 242.311 100.067 244.174 102.652C246.103 100.532 247.705 98.7708 249.271 96.1911ZM450.876 148.471C457.019 152.674 454.843 144.993 458.126 144.448C456.004 142.534 454.564 141.236 453.233 140.036C446.352 143.611 446.352 143.611 450.876 148.471ZM380.855 115.934C383.248 116.281 385.641 116.629 388.269 117.011C388.269 113.977 388.269 111.694 388.269 109.264C385.713 109.264 383.429 109.264 380.756 109.264C380.756 111.317 380.756 113.118 380.855 115.934ZM278.208 65.3481C275.814 65.001 273.42 64.6538 270.792 64.2725C270.792 67.3049 270.792 69.5881 270.792 72.0189C273.345 72.0189 275.631 72.0189 278.305 72.0189C278.305 69.9557 278.305 68.159 278.208 65.3481ZM296.118 66.3593C293.756 65.5491 291.394 64.739 288.634 63.7922C288.634 67.3731 288.634 69.6562 288.634 71.9892C291.219 71.9892 293.504 71.9892 296.13 71.9892C296.13 70.2543 296.13 68.8176 296.118 66.3593ZM313.93 70.4376C313.93 68.5085 313.93 66.5795 313.93 64.9107C310.845 64.9107 308.562 64.9107 306.565 64.9107C306.565 67.6103 306.565 69.8962 306.565 72.6926C309.307 72.2235 311.569 71.8367 313.93 70.4376ZM481.585 81.1911C475.528 82.0903 480.095 86.1705 478.773 88.6504C481.636 88.6504 483.922 88.6504 487.367 88.6504C485.065 85.9163 489.523 80.6945 481.585 81.1911ZM480.564 106.755C482.495 106.755 484.426 106.755 486.097 106.755C486.097 103.673 486.097 101.392 486.097 99.3967C483.395 99.3967 481.107 99.3967 478.308 99.3967C478.777 102.137 479.164 104.396 480.564 106.755ZM274.71 101.321C274.361 103.711 274.012 106.102 273.63 108.721C276.66 108.721 278.942 108.721 281.385 108.721C281.385 106.168 281.385 103.888 281.385 101.222C279.319 101.222 277.522 101.222 274.71 101.321ZM406.345 113.897C406.25 112.322 406.155 110.747 406.072 109.369C403.313 109.369 401.027 109.369 398.938 109.369C398.938 112.036 398.938 114.32 398.938 117.757C401.863 116.635 404.097 115.777 406.345 113.897ZM419.249 116.775C420.826 116.68 422.402 116.585 423.781 116.501C423.781 113.746 423.781 111.462 423.781 109.376C421.111 109.376 418.825 109.376 415.385 109.376C416.494 112.26 417.359 114.511 419.249 116.775ZM482.609 124.564C489.849 124.674 485.298 119.781 486.344 117.134C483.516 117.134 481.231 117.134 478.186 117.134C480.211 119.705 475.692 124.069 482.609 124.564ZM261.734 138.177C264.127 138.525 266.521 138.873 269.149 139.255C269.149 136.22 269.149 133.936 269.149 131.507C266.597 131.507 264.31 131.507 261.635 131.507C261.635 133.569 261.635 135.366 261.734 138.177ZM444.213 56.3477C444.213 58.2771 444.213 60.2064 444.213 61.8758C447.299 61.8758 449.582 61.8758 451.578 61.8758C451.578 59.1754 451.578 56.8892 451.578 54.094C448.835 54.5625 446.573 54.9488 444.213 56.3477ZM360.981 143.583C358.694 143.583 356.406 143.583 354.253 143.583C354.253 146.467 354.253 148.619 354.253 151.003C356.763 151.003 359.043 151.003 361.702 151.003C361.702 148.609 361.702 146.459 360.981 143.583ZM323.977 66.4138C323.977 68.3327 323.977 70.2515 323.977 72.0901C326.934 72.0901 329.093 72.0901 331.224 72.0901C332.176 64.516 330.931 63.394 323.977 66.4138ZM472.966 149.432C472.078 144.93 469.016 145.354 465.604 145.986C465.604 148.87 465.604 151.487 465.604 153.938C467.819 153.657 469.875 153.633 471.749 153.037C472.443 152.817 472.709 151.254 472.966 149.432ZM280.24 138.904C282.527 138.904 284.814 138.904 287.676 138.904C286.865 135.858 286.247 133.535 285.701 131.481C283.405 131.481 281.635 131.481 279.541 131.481C279.541 133.859 279.541 136.012 280.24 138.904Z" fill="#F9F9F9"/>
<path d="M127.673 250.629C120.09 222.877 111.88 195.724 105.675 168.121C102.306 153.13 92.6544 143.736 83.1268 133.322C76.9736 126.596 70.5767 123.133 61.4509 124.458C57.4539 125.039 53.2987 124.652 49.2205 124.531C42.177 124.321 37.737 119.297 37.8599 111.85C37.9696 105.208 42.1505 101.232 49.234 101.226C82.0738 101.2 114.914 101.265 147.753 101.161C152.785 101.145 155.971 103.262 158.479 107.47C160.522 110.896 163.005 114.137 165.708 117.078C172.824 124.82 180.571 132.019 187.288 140.081C192.474 146.307 198.954 147.372 206.236 148.007C219.021 149.123 231.759 150.778 244.522 152.154C252.553 153.019 260.599 153.739 268.63 154.608C281.553 156.006 294.462 157.527 307.389 158.893C319.071 160.128 330.775 161.155 342.456 162.403C354.667 163.708 366.86 165.184 379.065 166.556C386.722 167.416 394.385 168.222 402.046 169.05C415.532 170.508 429.015 171.989 442.505 173.411C450.319 174.235 458.144 174.964 466.073 175.747C463.957 199.108 461.897 221.855 459.815 244.831C486.579 243.809 507.947 253.951 523.211 275.496C529.896 284.933 533.846 295.845 534.438 307.79C535.232 323.819 532.75 338.832 523.348 352.327C511.126 369.87 494.803 380.184 473.335 382.691C450.937 385.307 432.241 377.868 416.258 362.816C412.311 359.099 409.617 354.083 406.093 349.876C404.99 348.558 403.058 347.117 401.503 347.113C344.172 346.988 286.842 347.025 229.512 347.055C228.983 347.056 228.454 347.27 227.521 347.472C227.521 362.548 227.521 377.652 227.521 393.277C238.165 395.693 245.21 402.324 247.543 413.534C273.972 413.534 300.104 413.534 326.835 413.534C328.619 406.201 331.863 399.15 339.39 396.241C344.183 394.39 349.762 393.733 354.944 393.907C363.891 394.206 371.848 402.524 374.819 413.516C381.219 413.516 387.68 413.516 394.67 413.516C396.584 406.723 399.448 400.251 406.28 396.626C414.145 392.453 422.356 392.11 430.053 396.258C437.502 400.273 441.56 406.608 442.168 415.746C443.167 430.786 431.665 441.535 415.858 441.53C393.965 441.523 372.072 441.528 350.178 441.528C253.143 441.528 156.108 441.528 59.0725 441.528C56.699 441.528 54.3256 441.528 51.5929 441.528C51.5929 438.875 51.5929 436.742 51.5929 434.014C79.2881 434.014 107.018 434.014 135.736 434.014C130.167 425.432 127.828 417.113 131.422 408.093C135.052 398.986 142.082 394.41 152.16 393.387C152.279 391.848 152.498 390.261 152.506 388.672C152.544 381.443 151.966 374.163 152.63 366.996C154.456 347.292 148.984 328.871 143.773 310.303C138.247 290.613 133.16 270.8 127.673 250.629ZM435.387 252.503C437.417 251.681 439.432 250.817 441.48 250.044C453.24 245.601 453.243 245.608 453.682 231.668C455.181 215.333 456.681 198.998 458.228 182.142C370.382 172.718 283.354 163.382 196.002 154.011C196.866 159.835 197.501 164.586 198.283 169.313C207.497 225.035 216.772 280.747 225.867 336.488C226.388 339.68 227.585 340.37 230.475 340.364C282.4 340.256 334.325 340.223 387.285 340.296C392.004 340.296 396.724 340.296 400.705 340.296C399.481 331.14 397.344 322.581 397.468 314.055C397.598 305.109 399.896 296.195 401.912 286.95C407.847 278.795 413.781 270.64 420.4 262.16C425.137 258.989 429.874 255.818 435.387 252.503ZM160.87 153.567C143.744 153.567 126.618 153.567 108.977 153.567C125.939 216.349 142.666 278.261 159.321 339.907C179.668 339.907 199.388 339.907 219.26 339.907C218.453 334.562 217.772 329.635 216.961 324.729C207.746 268.988 198.476 213.256 189.373 157.496C188.864 154.375 187.755 153.47 184.802 153.523C177.198 153.659 169.59 153.567 160.87 153.567ZM510.447 357.003C524.298 341.836 529.918 324.204 526.706 303.788C521.556 271.066 488.722 247.261 456.404 252.946C421.296 259.121 398.022 291.441 404.738 325.028C409.583 349.263 423.852 365.898 447.411 373.167C470.956 380.432 492.046 374.704 510.447 357.003ZM173.733 404.369C175.076 407.334 176.418 410.299 177.872 413.508C185.014 413.508 192.376 413.508 199.769 413.508C201.902 405.383 205.512 398.26 213.767 395.603C218.762 393.995 219.818 391.366 219.395 386.786C219.056 383.116 219.327 379.391 219.327 375.69C219.327 366.314 219.327 356.938 219.327 347.44C199.31 347.44 180.003 347.44 160.546 347.44C160.546 363.382 160.546 378.876 160.546 392.354C165.506 396.82 169.349 400.279 173.733 404.369ZM93.5125 132.909C96.6576 136.049 100.086 138.958 102.871 142.389C105.884 146.101 109.44 146.969 114.008 146.903C130.121 146.673 146.24 146.814 162.356 146.814C168.766 146.814 175.176 146.814 182.776 146.814C173.962 137.384 165.987 128.851 159.244 121.635C153.589 122.795 149.307 124.367 145 124.436C127.035 124.722 109.064 124.548 91.0947 124.572C89.5676 124.574 88.0408 124.801 86.5138 124.924C86.2623 125.379 86.0108 125.834 85.7593 126.29C88.1584 128.311 90.5574 130.332 93.5125 132.909ZM259.957 433.753C283.927 433.753 307.897 433.753 332.284 433.753C330.182 429.383 328.384 425.646 326.399 421.519C301.108 421.519 275.586 421.483 250.066 421.628C248.837 421.635 247.115 422.97 246.491 424.146C244.921 427.102 243.85 430.322 242.448 433.753C248.13 433.753 253.489 433.753 259.957 433.753ZM186.549 421.503C183.612 421.503 180.675 421.503 177.919 421.503C175.926 425.704 174.11 429.531 172.265 433.418C183.438 433.418 194.209 433.418 204.87 433.418C203.044 429.444 201.328 425.712 199.393 421.503C195.711 421.503 191.669 421.503 186.549 421.503ZM373.984 423.741C372.423 426.942 370.862 430.143 369.257 433.432C379.711 433.432 389.754 433.432 400.044 433.432C398.072 429.346 396.274 425.619 394.034 420.975C387.676 421.57 380.916 422.203 373.984 423.741ZM220.883 423.856C223.763 422.896 227.356 422.647 229.271 420.727C230.542 419.453 230.391 415 229.1 413.402C227.616 411.566 224.053 410.366 221.619 410.672C219.728 410.91 216.825 413.868 216.803 415.647C216.771 418.273 218.898 420.925 220.883 423.856ZM411.92 414.836C411.05 418.436 411.633 421.949 415.206 423.284C417.433 424.116 421.048 423.96 422.781 422.621C424.501 421.291 425.486 417.823 425.206 415.483C424.986 413.648 422.639 411.359 420.71 410.593C417.281 409.232 414.202 410.672 411.92 414.836ZM156.93 420.466C155.827 419.48 154.043 418.652 153.767 417.472C153.254 415.28 153.62 412.882 153.62 410.109C149.291 410.736 146.572 412.67 146.735 416.094C146.856 418.634 148.357 422.016 150.351 423.284C152.095 424.392 155.386 423.088 157.978 422.735C158.025 422.729 157.876 421.286 156.93 420.466ZM351.107 424.505C352.847 423.639 354.587 422.772 356.327 421.905C356.151 421.607 355.974 421.308 355.797 421.01C352.298 421.01 348.798 421.01 345.298 421.01C345.215 421.407 345.131 421.804 345.047 422.201C346.78 422.97 348.513 423.739 351.107 424.505ZM352.028 410.284C349.737 410.91 347.447 411.537 345.157 412.164C345.303 412.633 345.45 413.102 345.596 413.572C348.99 413.572 352.384 413.572 357.186 413.572C355.065 412.022 353.989 411.237 352.028 410.284Z" fill="#1DA1F2"/>
<path d="M441.953 37.3566C435.827 44.4455 429.82 51.1446 423.662 57.7022C421.668 59.8264 419.441 61.8199 417.037 63.4587C409.117 68.8585 397.207 67.7773 390.612 57.6242C398.325 50.6651 403.594 40.0823 417.273 41.079C416.832 27.9962 426.753 21.5869 434.494 13.708C443.185 20.6231 445.236 27.0354 441.953 37.3566ZM405.95 52.4301C404.475 54.1099 403 55.7898 401.317 57.706C410.021 60.5951 416.495 57.5589 420.363 49.3597C415.165 47.1103 410.639 48.2253 405.95 52.4301ZM434.462 36.1429C436.496 32.2711 437.444 28.4325 434.444 24.4585C425.143 31.9273 423.151 37.3042 427.558 43.6798C429.766 41.3603 431.905 39.1143 434.462 36.1429Z" fill="#1DA1F2"/>
<path d="M324.943 22.2517C332.553 21.6678 338.545 23.7756 342.888 29.6195C349.935 22.3708 357.917 20.6653 374.345 22.7032C377.575 31.8249 369.337 44.9987 356.186 45.5181C347.313 45.8686 338.415 45.6439 329.528 45.5703C319.794 45.4896 308.702 33.5635 312.564 22.2517C316.359 22.2517 320.387 22.2517 324.943 22.2517ZM347.869 36.5879C353.723 41.4836 364.335 37.5846 366.667 29.4034C359.454 28.7776 352.528 28.4356 347.869 36.5879ZM336.195 32.7067C331.436 28.4313 325.852 28.8842 320.038 29.5267C322.642 37.3998 329.379 40.1601 339.393 37.4642C338.469 35.9975 337.618 34.6454 336.195 32.7067Z" fill="#1DA1F2"/>
<path d="M71.9127 369.121C76.882 361.512 83.7567 359.615 91.6417 363.396C97.4619 366.186 100.747 374.211 98.5507 380.272C95.937 387.484 88.6776 391.762 81.5305 390.301C74.861 388.938 69.5783 382.072 70.1979 375.302C70.3783 373.331 71.1533 371.415 71.9127 369.121ZM91.2448 376.346C90.8978 375.146 90.9274 373.407 90.1302 372.851C88.0687 371.413 85.0163 369.052 83.5067 369.705C81.1627 370.719 78.3385 373.958 78.3859 376.198C78.4312 378.339 81.5317 381.477 83.9188 382.259C87.4654 383.42 89.8958 380.594 91.2448 376.346Z" fill="#1DA1F2"/>
<path d="M109.655 323.569C112.421 318.504 116.049 315.527 121.657 316.652C128.614 318.046 131.317 322.346 130.213 329.538C129.505 334.145 124.591 338.281 120.209 337.957C114.11 337.507 109.212 332.525 109.119 326.631C109.105 325.724 109.284 324.814 109.655 323.569Z" fill="#1DA1F2"/>
<path d="M173.969 75.894C175.45 74.501 176.65 73.3856 177.81 72.3066C183.939 76.4555 183.976 76.8945 179.307 81.6835C175.831 85.2489 172.443 88.8996 168.507 93.0491C166.277 90.9234 164.493 89.2226 162.166 87.005C166.165 83.2452 169.926 79.7084 173.969 75.894Z" fill="#1DA1F2"/>
<path d="M145.84 70.0114C145.84 65.8294 145.84 62.1844 145.84 58.1973C148.524 58.1973 150.653 58.1973 153.21 58.1973C153.21 64.8568 153.21 71.5533 153.21 78.6056C150.951 78.6056 148.824 78.6056 145.84 78.6056C145.84 75.9268 145.84 73.2376 145.84 70.0114Z" fill="#1DA1F2"/>
<path d="M176.306 107.358C176.073 105.275 176.073 103.629 176.073 101.598C183.001 101.598 189.734 101.598 196.754 101.598C196.754 104.005 196.754 106.133 196.754 109.5C189.806 108.914 183.172 108.354 176.306 107.358Z" fill="#1DA1F2"/>
<path d="M289.237 110.445C292.721 102.391 292.94 102.385 299.597 110.101C298.525 110.944 297.511 111.862 296.38 112.599C295.201 113.368 293.909 113.962 292.715 114.606C291.547 113.198 290.528 111.968 289.237 110.445Z" fill="#AAB0C4"/>
<path d="M258.227 100.137C260.209 100.668 261.719 101.178 263.577 101.806C263.577 103.77 263.577 106.077 263.577 109.235C260.659 108.69 257.968 108.187 254.212 107.484C255.538 104.727 256.646 102.422 258.227 100.137Z" fill="#1DA1F2"/>
<path d="M343.369 55.7973C344.781 56.3487 345.771 56.7522 347.015 57.2592C345.933 59.9293 344.809 62.7043 343.486 65.9687C341.246 64.3039 339.303 62.8607 337.24 61.3281C337.953 58.1765 338.075 54.5966 343.369 55.7973Z" fill="#1DA1F2"/>
<path d="M300.409 128.41C296.375 133.716 294.43 128.578 291.416 127.348C292.431 125.362 293.309 123.643 294.195 121.928C296.643 122.172 299.085 122.412 301.798 122.678C301.347 124.618 300.955 126.308 300.409 128.41Z" fill="#1DA1F2"/>
<path d="M361.775 127.173C361.807 129.313 361.807 130.956 361.807 132.965C360.532 133.137 359.343 133.355 358.144 133.442C357.053 133.522 355.952 133.459 354.439 133.459C354.439 130.559 354.439 127.765 354.439 124.041C357.044 124.981 359.393 125.829 361.775 127.173Z" fill="#1DA1F2"/>
<path d="M480.25 134.596C487.546 134.83 487.828 135.74 483.423 143.379C476.132 141.517 475.273 139.438 480.25 134.596Z" fill="#1DA1F2"/>
<path d="M482.381 63.1797C483.616 65.4038 484.545 67.3443 485.448 69.2318C484.959 69.804 484.682 70.4334 484.232 70.6014C482.393 71.2878 480.502 71.8332 478.573 72.4487C477.439 70.8724 476.411 69.4426 474.728 67.1026C477.27 65.6468 479.673 64.2715 482.381 63.1797Z" fill="#1DA1F2"/>
<path d="M256.564 64.8062C263.789 64.1295 258.862 69.3509 260.728 71.3122C253.481 74.2211 253.481 74.2211 251.639 66.1716C253.13 65.7899 254.632 65.4057 256.564 64.8062Z" fill="#1DA1F2"/>
<path d="M370.758 113.379C374.606 119.049 367.367 117.263 367.079 120.534C365.022 118.422 363.37 116.726 361.754 115.068C365.736 109.314 367.912 108.848 370.758 113.379Z" fill="#1DA1F2"/>
<path d="M438.364 110.449C440.114 111.432 441.547 112.148 442.97 112.86C440.107 120.091 438.928 120.489 432.774 115.834C436.015 115.107 431.288 108.123 438.364 110.449Z" fill="#1DA1F2"/>
<path d="M462.395 55.0188C465.324 54.9854 467.959 55.3445 470.594 55.7038C470.402 61.5189 468.636 64.7697 462.1 61.6698C462.1 59.7582 462.1 57.5847 462.395 55.0188Z" fill="#1DA1F2"/>
<path d="M443.141 127.919C445.257 125.95 447.408 124.444 450.149 122.525C450.984 126.186 451.599 128.884 452.282 131.879C448.259 132.475 444.457 133.775 443.141 127.919Z" fill="#1DA1F2"/>
<path d="M239.964 83.197C236.328 79.6894 240.269 77.5563 240.924 74.8682C243.304 75.7334 245.685 76.5986 247.918 77.4105C247.052 82.32 244.703 84.2258 239.964 83.197Z" fill="#1DA1F2"/>
<path d="M249.289 96.601C247.705 98.7712 246.103 100.532 244.174 102.652C242.311 100.067 240.65 97.7617 239.035 95.5215C243.207 91.182 246.496 91.3574 249.289 96.601Z" fill="#1DA1F2"/>
<path d="M450.581 148.181C446.353 143.611 446.353 143.611 453.234 140.036C454.566 141.237 456.005 142.535 458.128 144.449C454.845 144.993 457.02 152.674 450.581 148.181Z" fill="#1DA1F2"/>
<path d="M380.806 115.427C380.757 113.119 380.757 111.317 380.757 109.264C383.429 109.264 385.714 109.264 388.27 109.264C388.27 111.694 388.27 113.977 388.27 117.011C385.642 116.629 383.249 116.281 380.806 115.427Z" fill="#1DA1F2"/>
<path d="M278.258 65.8551C278.307 68.1589 278.307 69.9557 278.307 72.0188C275.632 72.0188 273.346 72.0188 270.793 72.0188C270.793 69.588 270.793 67.3048 270.793 64.2725C273.421 64.6537 275.815 65.0009 278.258 65.8551Z" fill="#1DA1F2"/>
<path d="M296.126 66.8699C296.132 68.8174 296.132 70.2541 296.132 71.989C293.506 71.989 291.22 71.989 288.636 71.989C288.636 69.656 288.636 67.373 288.636 63.792C291.396 64.7388 293.758 65.549 296.126 66.8699Z" fill="#1DA1F2"/>
<path d="M313.881 70.9432C311.57 71.8362 309.308 72.223 306.565 72.6921C306.565 69.8957 306.565 67.6097 306.565 64.9102C308.563 64.9102 310.846 64.9102 313.93 64.9102C313.93 66.5789 313.93 68.508 313.881 70.9432Z" fill="#1DA1F2"/>
<path d="M482.097 81.1902C489.524 80.6943 485.066 85.9161 487.368 88.6501C483.923 88.6501 481.637 88.6501 478.774 88.6501C480.096 86.1703 475.529 82.0901 482.097 81.1902Z" fill="#1DA1F2"/>
<path d="M480.059 106.705C479.166 104.396 478.779 102.137 478.31 99.3965C481.108 99.3965 483.396 99.3965 486.099 99.3965C486.099 101.391 486.099 103.672 486.099 106.754C484.428 106.754 482.497 106.754 480.059 106.705Z" fill="#1DA1F2"/>
<path d="M275.218 101.272C277.523 101.223 279.32 101.223 281.386 101.223C281.386 103.889 281.386 106.169 281.386 108.722C278.944 108.722 276.661 108.722 273.631 108.722C274.013 106.102 274.362 103.712 275.218 101.272Z" fill="#1DA1F2"/>
<path d="M406.339 114.409C404.098 115.778 401.864 116.635 398.939 117.758C398.939 114.32 398.939 112.037 398.939 109.369C401.028 109.369 403.314 109.369 406.073 109.369C406.156 110.747 406.251 112.322 406.339 114.409Z" fill="#1DA1F2"/>
<path d="M418.738 116.769C417.36 114.511 416.494 112.26 415.386 109.376C418.825 109.376 421.112 109.376 423.782 109.376C423.782 111.461 423.782 113.745 423.782 116.501C422.403 116.584 420.826 116.68 418.738 116.769Z" fill="#1DA1F2"/>
<path d="M482.099 124.563C475.693 124.07 480.211 119.705 478.187 117.134C481.231 117.134 483.517 117.134 486.344 117.134C485.299 119.782 489.849 124.674 482.099 124.563Z" fill="#1DA1F2"/>
<path d="M261.685 137.671C261.636 135.367 261.636 133.57 261.636 131.508C264.311 131.508 266.598 131.508 269.15 131.508C269.15 133.937 269.15 136.221 269.15 139.255C266.522 138.874 264.128 138.526 261.685 137.671Z" fill="#1DA1F2"/>
<path d="M444.262 55.8411C446.573 54.9485 448.836 54.5622 451.579 54.0938C451.579 56.8889 451.579 59.1751 451.579 61.8755C449.583 61.8755 447.299 61.8755 444.213 61.8755C444.213 60.2061 444.213 58.2768 444.262 55.8411Z" fill="#1DA1F2"/>
<path d="M361.343 143.947C361.703 146.46 361.703 148.61 361.703 151.004C359.044 151.004 356.764 151.004 354.254 151.004C354.254 148.619 354.254 146.468 354.254 143.584C356.407 143.584 358.695 143.584 361.343 143.947Z" fill="#1DA1F2"/>
<path d="M324.02 65.9139C330.932 63.394 332.177 64.5161 331.225 72.0901C329.094 72.0901 326.935 72.0901 323.978 72.0901C323.978 70.2516 323.978 68.3327 324.02 65.9139Z" fill="#1DA1F2"/>
<path d="M473.069 149.868C472.71 151.255 472.444 152.817 471.751 153.038C469.876 153.633 467.82 153.658 465.605 153.938C465.605 151.488 465.605 148.871 465.605 145.987C469.017 145.354 472.079 144.931 473.069 149.868Z" fill="#1DA1F2"/>
<path d="M279.892 138.534C279.543 136.011 279.543 133.859 279.543 131.48C281.637 131.48 283.406 131.48 285.702 131.48C286.249 133.535 286.867 135.857 287.678 138.904C284.816 138.904 282.529 138.904 279.892 138.534Z" fill="#1DA1F2"/>
<path d="M386.249 340.174C334.324 340.223 282.399 340.256 230.474 340.364C227.585 340.37 226.388 339.68 225.867 336.488C216.771 280.747 207.497 225.035 198.282 169.314C197.501 164.586 196.866 159.835 196.002 154.011C283.354 163.382 370.382 172.718 458.228 182.142C456.68 198.999 455.181 215.333 453.02 232.083C445.181 234.69 438.002 236.883 430.438 239.16C427.391 240.286 424.729 241.328 422.046 241.891C422.659 235.926 423.373 230.447 423.905 224.951C424.598 217.803 419.764 211.794 413.108 211.344C406.051 210.867 400.716 215.701 400.674 223.152C400.605 235.538 400.854 247.926 400.885 260.738C400.605 262.306 400.41 263.449 399.875 264.703C389.578 276.635 384.58 290.543 383.045 305.674C381.864 317.311 383.25 328.852 386.249 340.174ZM266.505 197.639C255.224 195.094 247.064 201.936 248.437 213.157C252.051 242.685 255.838 272.191 259.618 301.699C260.341 307.344 263.559 310.446 268.039 310.228C272.597 310.007 275.155 306.787 275.164 300.814C275.205 271.023 275.156 241.232 275.201 211.44C275.211 205.335 273.044 200.653 266.505 197.639ZM328.958 256.9C329.552 270.389 330.111 283.881 330.766 297.367C330.899 300.123 330.629 303.311 331.92 305.486C333.323 307.852 336.395 310.799 338.619 310.703C341.216 310.59 344.284 307.894 346.011 305.501C347.35 303.643 347.037 300.537 347.294 297.97C347.938 291.532 348.509 285.086 349.072 278.641C350.776 259.118 352.648 239.606 354.071 220.063C354.704 211.371 348.681 204.868 340.905 204.769C333.119 204.671 327.136 211.039 327.342 219.825C327.624 231.844 328.295 243.854 328.958 256.9Z" fill="#F9F9F9"/>
<path d="M161.426 153.567C169.59 153.567 177.198 153.659 184.802 153.523C187.754 153.47 188.864 154.375 189.373 157.496C198.476 213.256 207.745 268.988 216.96 324.729C217.772 329.635 218.453 334.562 219.26 339.907C199.388 339.907 179.668 339.907 159.321 339.907C142.666 278.261 125.939 216.349 108.977 153.567C126.618 153.567 143.744 153.567 161.426 153.567Z" fill="#F9F9F9"/>
<path d="M510.165 357.284C492.045 374.704 470.955 380.432 447.41 373.167C423.851 365.898 409.582 349.263 404.737 325.028C398.021 291.441 421.295 259.121 456.403 252.946C488.721 247.261 521.555 271.066 526.704 303.788C529.917 324.204 524.297 341.836 510.165 357.284ZM437.535 289.786C435.122 291.757 432.71 293.728 429.314 296.503C436.227 302.84 442.053 308.18 448.391 313.989C442.041 319.918 436.366 325.216 431.119 330.115C437.221 336.242 442.919 341.964 449.853 348.926C454.895 343.413 460.204 337.609 466.468 330.761C472.094 336.916 477.295 342.607 482.324 348.109C488.302 342.174 493.932 336.584 500.393 330.168C494.729 324.833 489.014 319.449 482.599 313.405C488.715 307.784 494.416 302.543 499.768 297.623C493.617 291.286 488.013 285.511 481.375 278.672C476.004 284.348 470.587 290.074 464.563 296.441C459.074 290.572 453.774 284.905 447.86 278.581C444.352 282.403 441.224 285.81 437.535 289.786Z" fill="#F4F4F3"/>
<path d="M173.461 404.054C169.348 400.279 165.505 396.819 160.545 392.353C160.545 378.875 160.545 363.382 160.545 347.439C180.002 347.439 199.308 347.439 219.326 347.439C219.326 356.937 219.326 366.313 219.326 375.69C219.326 379.39 219.055 383.116 219.394 386.785C219.817 391.365 218.761 393.995 213.765 395.603C205.511 398.26 201.901 405.383 199.768 413.508C192.375 413.508 185.012 413.508 177.87 413.508C176.417 410.298 175.075 407.333 173.461 404.054Z" fill="#F9F9F9"/>
<path d="M93.233 132.631C90.556 130.332 88.1569 128.311 85.7578 126.289C86.0093 125.834 86.2608 125.379 86.5123 124.923C88.0393 124.801 89.5661 124.574 91.0932 124.572C109.062 124.547 127.034 124.722 144.998 124.435C149.305 124.367 153.588 122.795 159.242 121.635C165.986 128.85 173.961 137.383 182.774 146.813C175.175 146.813 168.765 146.813 162.355 146.813C146.238 146.813 130.12 146.672 114.006 146.903C109.438 146.968 105.882 146.101 102.87 142.389C100.085 138.958 96.6561 136.048 93.233 132.631Z" fill="#F9F9F9"/>
<path d="M259.401 433.754C253.488 433.754 248.129 433.754 242.447 433.754C243.848 430.322 244.92 427.103 246.489 424.147C247.114 422.97 248.835 421.636 250.065 421.629C275.585 421.484 301.107 421.52 326.398 421.52C328.383 425.646 330.181 429.384 332.282 433.754C307.895 433.754 283.926 433.754 259.401 433.754Z" fill="#F9F9F9"/>
<path d="M386.766 340.235C383.249 328.852 381.864 317.311 383.045 305.673C384.579 290.543 389.578 276.635 400.01 265.212C400.738 272.83 400.992 280.049 401.246 287.267C399.895 296.195 397.597 305.109 397.467 314.055C397.343 322.581 399.48 331.14 400.704 340.296C396.723 340.296 392.003 340.296 386.766 340.235Z" fill="#F9F9F9"/>
<path d="M402.579 285.109C401.992 278.049 401.739 270.83 401.35 263.102C401.41 261.449 401.605 260.306 402.244 258.648C405.652 255.462 408.439 252.551 411.632 250.186C414.906 247.761 418.578 245.871 421.994 244.255C421.514 250.004 421.115 255.245 420.716 260.486C414.781 268.64 408.847 276.795 402.579 285.109Z" fill="#1DA1F2"/>
<path d="M187.086 421.504C191.668 421.504 195.71 421.504 199.392 421.504C201.327 425.712 203.042 429.445 204.869 433.419C194.208 433.419 183.437 433.419 172.264 433.419C174.108 429.532 175.924 425.704 177.918 421.504C180.674 421.504 183.611 421.504 187.086 421.504Z" fill="#F9F9F9"/>
<path d="M430.823 239.076C438.002 236.883 445.18 234.69 452.83 232.498C453.242 245.608 453.239 245.601 441.479 250.043C439.431 250.817 437.416 251.681 434.572 252.397C433.158 250.531 432.375 248.808 431.998 247.001C431.452 244.392 431.2 241.721 430.823 239.076Z" fill="#F9F9F9"/>
<path d="M374.07 423.288C380.916 422.203 387.676 421.57 394.034 420.975C396.274 425.619 398.072 429.346 400.043 433.432C389.754 433.432 379.711 433.432 369.257 433.432C370.862 430.143 372.423 426.942 374.07 423.288Z" fill="#F9F9F9"/>
<path d="M430.438 239.16C431.2 241.721 431.452 244.392 431.997 247.002C432.375 248.809 433.157 250.531 434.184 252.47C429.872 255.819 425.135 258.989 420.057 262.323C420.114 257.245 420.513 252.005 421.222 245.983C421.71 244.258 421.888 243.314 422.066 242.37C424.728 241.328 427.39 240.286 430.438 239.16Z" fill="#F9F9F9"/>
<path d="M220.493 423.711C218.897 420.926 216.77 418.273 216.802 415.647C216.824 413.869 219.727 410.911 221.617 410.673C224.052 410.366 227.615 411.566 229.099 413.403C230.39 415 230.541 419.454 229.27 420.727C227.355 422.647 223.762 422.896 220.493 423.711Z" fill="white"/>
<path d="M412.077 414.403C414.201 410.673 417.281 409.232 420.71 410.594C422.638 411.359 424.986 413.648 425.206 415.483C425.486 417.824 424.5 421.292 422.78 422.621C421.048 423.961 417.432 424.116 415.206 423.285C411.632 421.95 411.05 418.437 412.077 414.403Z" fill="white"/>
<path d="M157.374 420.49C157.875 421.287 158.024 422.729 157.977 422.736C155.385 423.089 152.095 424.393 150.35 423.284C148.356 422.017 146.855 418.634 146.734 416.095C146.572 412.67 149.291 410.737 153.619 410.109C153.619 412.882 153.253 415.28 153.766 417.473C154.043 418.652 155.826 419.48 157.374 420.49Z" fill="white"/>
<path d="M350.676 424.506C348.512 423.739 346.78 422.97 345.047 422.201C345.131 421.804 345.214 421.407 345.298 421.01C348.798 421.01 352.298 421.01 355.797 421.01C355.974 421.308 356.15 421.607 356.327 421.905C354.587 422.772 352.847 423.638 350.676 424.506Z" fill="white"/>
<path d="M352.47 410.367C353.989 411.237 355.065 412.023 357.185 413.572C352.383 413.572 348.989 413.572 345.595 413.572C345.449 413.103 345.303 412.633 345.156 412.164C347.447 411.537 349.737 410.91 352.47 410.367Z" fill="white"/>
<path d="M406.245 52.1394C410.639 48.2246 415.165 47.1096 420.363 49.3589C416.495 57.5582 410.021 60.5944 401.317 57.7053C403 55.789 404.475 54.1092 406.245 52.1394Z" fill="#F9F9F9"/>
<path d="M434.253 36.5052C431.906 39.1139 429.767 41.3598 427.559 43.6793C423.152 37.3037 425.144 31.9269 434.444 24.458C437.445 28.432 436.496 32.2707 434.253 36.5052Z" fill="#F9F9F9"/>
<path d="M348.041 36.2274C352.528 28.4351 359.453 28.777 366.667 29.4029C364.335 37.584 353.722 41.483 348.041 36.2274Z" fill="#F9F9F9"/>
<path d="M336.481 32.9998C337.619 34.6452 338.47 35.9973 339.393 37.464C329.379 40.1599 322.642 37.3996 320.038 29.5265C325.852 28.884 331.436 28.4311 336.481 32.9998Z" fill="#F9F9F9"/>
<path d="M91.2023 376.773C89.8973 380.593 87.4669 383.42 83.9203 382.258C81.5332 381.476 78.4326 378.339 78.3873 376.197C78.3399 373.958 81.1641 370.719 83.5081 369.705C85.0177 369.051 88.0701 371.412 90.1317 372.851C90.9288 373.407 90.8992 375.145 91.2023 376.773Z" fill="#F9F9F9"/>
<path d="M266.912 197.805C273.044 200.652 275.21 205.334 275.201 211.44C275.156 241.231 275.205 271.023 275.163 300.814C275.155 306.787 272.596 310.006 268.038 310.228C263.558 310.445 260.341 307.343 259.618 301.698C255.838 272.191 252.051 242.685 248.437 213.157C247.064 201.936 255.224 195.094 266.912 197.805Z" fill="#1DA1F2"/>
<path d="M328.878 256.384C328.295 243.854 327.623 231.844 327.341 219.825C327.135 211.039 333.118 204.671 340.904 204.77C348.68 204.868 354.703 211.371 354.07 220.063C352.647 239.607 350.775 259.118 349.071 278.641C348.508 285.087 347.937 291.532 347.293 297.97C347.037 300.537 347.35 303.643 346.01 305.501C344.284 307.895 341.215 310.591 338.618 310.703C336.395 310.8 333.323 307.853 331.919 305.486C330.628 303.311 330.899 300.123 330.765 297.367C330.111 283.881 329.551 270.39 328.878 256.384Z" fill="#1DA1F2"/>
<path d="M422.046 241.891C421.889 243.314 421.711 244.257 421.304 245.474C417.578 247.871 413.906 249.761 410.632 252.186C407.439 254.551 404.651 257.462 401.328 260.223C400.855 247.926 400.606 235.538 400.674 223.152C400.716 215.701 406.051 210.867 413.109 211.344C419.765 211.794 424.598 217.803 423.906 224.951C423.373 230.447 422.659 235.926 422.046 241.891Z" fill="#1DA1F2"/>
<path d="M437.815 289.502C441.224 285.81 444.352 282.403 447.86 278.581C453.774 284.905 459.074 290.572 464.563 296.441C470.587 290.074 476.004 284.348 481.375 278.672C488.013 285.511 493.617 291.286 499.768 297.623C494.416 302.543 488.715 307.784 482.599 313.405C489.014 319.449 494.729 324.833 500.393 330.168C493.931 336.584 488.302 342.174 482.324 348.109C477.295 342.607 472.094 336.916 466.468 330.761C460.204 337.609 454.895 343.413 449.853 348.926C442.919 341.964 437.221 336.242 431.119 330.115C436.366 325.216 442.041 319.918 448.391 313.989C442.053 308.18 436.227 302.84 429.313 296.503C432.709 293.728 435.122 291.757 437.815 289.502Z" fill="#1DA1F2"/>
</g>
<defs>
<clipPath id="clip0_2610_6335">
<rect width="570" height="466" fill="white"/>
</clipPath>
</defs>
</svg>
