<svg width="605" height="462" viewBox="0 0 605 462" fill="none" xmlns="http://www.w3.org/2000/svg">
<path d="M451.088 318.948C453.23 319.131 455.17 319.134 457.107 319.217C458.998 319.299 460.297 320.206 460.211 322.22C460.133 324.062 458.906 324.859 457.102 324.858C454.752 324.856 452.402 324.89 449.778 324.98C447.051 325.49 444.772 325.919 443.91 328.942C443.311 331.046 443.369 332.087 445.826 331.995C446.34 331.976 446.838 332.153 447.409 332.626C460.813 332.832 474.079 332.872 487.344 332.917C488.269 332.92 489.207 332.864 490.114 332.999C491.589 333.217 492.6 334.065 492.642 335.635C492.689 337.331 491.706 338.32 490.081 338.576C489.176 338.718 488.236 338.661 487.312 338.662C473.015 338.675 458.718 338.683 444.136 338.754C443.516 339.245 443.048 339.584 442.539 339.512C439.012 339.008 437.233 341.146 435.412 343.724C425.467 357.8 412.165 368.314 398.282 378.152C392.578 382.194 386.747 386.05 381.293 390.797C380.018 391.698 378.921 392.479 377.385 392.817C375.075 391.214 372.986 389.651 370.691 388.011C365.568 383.376 359.819 379.944 354.4 376.067C340.187 365.899 327.108 354.565 317.272 339.921C316.204 338.331 314.84 338.676 313.478 338.675C289.621 338.657 265.763 338.661 241.905 338.665C211.261 338.672 180.616 338.683 149.69 338.763C149.303 338.927 149.196 339.02 148.929 338.974C147.964 338.7 147.134 338.645 146.359 338.411C145.008 338.005 144.368 336.973 144.412 335.607C144.458 334.19 145.322 333.3 146.665 333.053C147.664 332.868 148.712 332.919 149.738 332.918C164.855 332.909 179.972 332.909 195.089 332.906C196.094 332.906 197.099 332.906 199.141 332.906C196.235 330.218 194.237 327.862 192.427 325.357C191.868 324.584 190.892 324.92 190.102 324.909C186.812 324.867 183.52 324.842 180.231 324.884C178.293 324.909 176.875 324.136 176.829 322.164C176.778 320.021 178.236 319.169 180.309 319.202C182.879 319.242 185.452 319.166 188.021 319.216C189.279 319.24 189.671 318.85 189.282 317.592C188.108 313.792 188.337 309.865 188.337 305.961C188.334 254.543 188.346 203.125 188.263 151.707C188.259 149.422 189.003 147.866 190.525 146.346C212.786 124.116 235.016 101.855 257.278 79.6252C258.122 78.7832 258.85 77.6989 260.362 77.5375C260.831 77.6663 261.113 77.6898 261.609 77.6462C262.842 77.5596 263.865 77.4608 264.888 77.4604C300.275 77.4469 335.662 77.439 371.05 77.4395C381.704 77.4396 389.717 82.2696 395.735 91.1155C398.979 94.3702 399.905 98.3333 400.318 102.487C400.481 104.124 400.402 105.774 400.402 107.418C400.404 158.09 400.401 208.761 400.41 259.433C400.41 261.652 399.963 264.14 403.373 264.934C414.937 265.032 425.115 268.156 433.682 275.784C436.46 278.257 438.835 281.083 441.042 284.346C442.964 285.354 443.327 287.201 444.029 288.721C447.803 296.887 449.323 305.484 448.017 314.402C447.617 317.131 448.255 318.42 451.088 318.948Z" fill="#1DA1F2"/>
<path d="M510.762 165.851C512.691 161.076 516.011 159.115 520.416 159.948C524.317 160.686 527.173 164.329 527.032 168.388C526.9 172.173 523.86 175.592 520.005 176.209C515.336 176.955 509.371 173.438 510.762 165.851Z" fill="#1DA1F2"/>
<path d="M373.203 428.317C372.389 432.774 370.02 435.494 366.616 436.107C363.018 436.754 359.501 435.16 357.692 432.061C355.955 429.085 356.382 425.148 358.841 422.355C361.223 419.65 364.297 419.242 367.555 420.183C371.438 421.304 372.97 424.266 373.203 428.317Z" fill="#1DA1F2"/>
<path d="M560.178 354.114C558.507 355.471 559.129 356.442 560.236 357.523C561.691 358.945 563.035 360.674 561.136 362.531C559.211 364.412 557.389 363.397 555.902 361.626C554.644 360.127 553.522 360.454 552.4 361.797C550.973 363.502 549.223 364.346 547.409 362.592C545.675 360.915 546.584 359.138 548.042 357.786C549.689 356.259 549.287 355.099 547.88 353.704C546.553 352.388 545.78 350.709 547.367 349.118C549.015 347.466 550.811 348.038 552.217 349.545C553.591 351.018 554.719 351.423 556.165 349.658C557.606 347.898 559.357 347.346 561.13 349.206C562.893 351.058 561.721 352.552 560.178 354.114Z" fill="#1DA1F2"/>
<path d="M153.228 422.581C151.765 423.599 150.643 425.003 148.94 423.043C147.418 421.293 147.441 419.629 149.09 418.218C151.068 416.525 151.005 415.218 149.02 413.613C147.366 412.274 147.398 410.455 148.792 409.022C150.199 407.577 151.956 408.052 153.13 409.414C154.799 411.349 156.161 411.353 157.803 409.452C159.163 407.877 160.924 407.691 162.39 409.158C163.917 410.685 163.398 412.446 161.951 413.75C160.39 415.156 159.775 416.346 161.711 417.923C162.974 418.952 163.779 420.361 162.946 421.987C162.035 423.764 160.347 423.73 158.436 423.36C156.686 422.733 155.401 420.517 153.228 422.581Z" fill="#1DA1F2"/>
<path d="M83.9504 299.909C79.0085 300.469 75.9526 298.797 74.3632 294.816C72.9951 291.388 74.116 287.309 77.0021 285.211C80.4167 282.729 84.5349 282.825 87.7141 285.562C90.0999 287.616 90.8372 290.349 90.2724 293.343C89.6331 296.732 87.6788 299.067 83.9504 299.909Z" fill="#1DA1F2"/>
<path d="M377.139 392.96C378.224 391.975 379.284 391.172 380.552 390.287C382.364 391.971 381.642 393.923 381.055 396.077C380.902 396.301 380.87 396.367 380.853 396.402C379.539 395.401 377.383 395.338 377.139 392.96Z" fill="#DCDCDC"/>
<path d="M153.172 422.802C155.494 419.621 155.778 419.643 158.137 423.155C156.585 423.332 154.91 423.832 153.172 422.802Z" fill="#E6E6E6"/>
<path d="M403.656 264.794C399.458 265.602 399.457 265.602 399.457 261.467C399.455 209.924 399.435 158.381 399.48 106.838C399.485 101.471 398.513 96.4246 395.886 91.5022C397.598 91.1559 398.073 92.6458 398.706 93.7095C401.637 98.6389 403.212 103.876 403.199 109.751C403.096 156.015 403.131 202.279 403.157 248.543C403.16 253.867 402.775 259.211 403.656 264.794Z" fill="#C4C4C4"/>
<path d="M381.12 396.28C380.873 394.459 380.845 392.618 380.788 390.49C386.483 385.042 392.977 380.919 399.236 376.478C413.691 366.222 427.092 354.865 437.106 340.002C438.782 337.514 441.24 339.123 443.579 338.755C443.023 342.787 440.161 345.6 437.876 348.631C433.808 354.03 429.345 359.157 424.267 363.669C416.317 370.733 408.123 377.497 399.171 383.285C393.832 386.737 388.922 390.76 383.983 394.742C383.169 395.398 382.336 395.956 381.12 396.28Z" fill="#C6C6C6"/>
<path d="M184.756 33.8545C185.964 38.8554 184.994 41.9472 181.714 44.0695C179.062 45.7859 174.598 45.6434 172.147 43.6948C169.415 41.5235 168.308 38.6983 169.124 35.2671C169.95 31.7931 172.591 29.3927 175.861 28.9829C179.849 28.4829 182.541 29.9077 184.756 33.8545Z" fill="#1DA1F2"/>
<path d="M427.257 28.4415C427.944 30.1423 427.804 31.5849 426.339 32.4013C424.819 33.2482 423.298 32.851 422.212 31.4697C420.744 29.6034 419.459 29.4965 417.896 31.4308C416.675 32.9412 415.047 33.586 413.374 31.9978C411.735 30.4419 412.194 28.6599 413.575 27.3867C415.524 25.5912 415.29 24.2945 413.434 22.6581C412.012 21.4041 411.864 19.6794 413.289 18.3222C414.71 16.9695 416.379 17.1316 417.601 18.6784C419.315 20.8472 420.796 20.7748 422.501 18.6715C423.735 17.1491 425.363 16.9682 426.802 18.3482C428.144 19.635 428.043 21.4226 426.733 22.4614C423.839 24.7558 424.957 26.4676 427.257 28.4415Z" fill="#1DA1F2"/>
<path d="M80.702 161.274C81.4481 161.817 82.1037 162.194 82.5261 162.749C83.7335 164.335 84.7989 164.114 85.9283 162.688C87.306 160.948 89.0078 160.051 90.8608 161.818C92.788 163.656 91.7524 165.361 90.0741 166.741C88.4274 168.094 88.8224 169.209 90.2048 170.471C91.7982 171.925 92.7367 173.752 90.8164 175.481C88.9406 177.171 87.1886 176.209 85.8653 174.44C84.6382 172.799 83.5873 173.225 82.377 174.478C80.9669 175.938 79.2602 177.342 77.3865 175.436C75.6373 173.657 76.498 171.75 78.1996 170.415C80.3478 168.73 79.2944 167.573 77.83 166.311C76.6148 165.264 76.112 163.849 76.8597 162.452C77.5831 161.101 78.8831 160.435 80.702 161.274Z" fill="#1DA1F2"/>
<path d="M451.281 318.805C446.416 319.383 446.447 319.388 447.091 314.775C448.576 304.149 446.305 294.247 441.225 284.7C441.956 282.758 442.483 283.842 442.951 284.672C447.908 293.468 452.052 302.498 451.299 312.988C451.167 314.822 451.275 316.674 451.281 318.805Z" fill="#C4C4C4"/>
<path d="M501.732 338.632C499.493 338.427 498.439 337.306 498.698 335.349C498.968 333.306 500.566 332.881 502.351 332.885C506.038 332.893 509.725 332.896 513.412 332.892C515.396 332.89 516.972 333.563 516.946 335.791C516.92 337.996 515.327 338.683 513.361 338.679C509.572 338.673 505.783 338.648 501.732 338.632Z" fill="#1DA1F2"/>
<path d="M135.357 338.659C131.308 338.675 127.52 338.654 123.733 338.677C121.745 338.688 120.164 338.023 120.119 335.844C120.074 333.654 121.644 332.888 123.628 332.882C127.416 332.872 131.204 332.889 134.993 332.897C136.702 332.9 138.122 333.484 138.375 335.326C138.644 337.285 137.574 338.396 135.357 338.659Z" fill="#1DA1F2"/>
<path d="M476.566 319.199C478.408 319.207 479.948 319.189 481.487 319.229C483.285 319.276 484.495 320.196 484.51 322.009C484.525 323.785 483.48 324.849 481.586 324.848C477.48 324.847 473.375 324.841 469.269 324.843C467.431 324.844 466.26 323.95 466.238 322.116C466.215 320.294 467.365 319.306 469.182 319.259C471.541 319.198 473.903 319.215 476.566 319.199Z" fill="#1DA1F2"/>
<path d="M152.844 320.773C153.43 319.826 154.084 319.318 154.958 319.308C159.35 319.258 163.744 319.176 168.134 319.262C169.74 319.294 170.845 320.395 170.847 322.034C170.85 323.839 169.701 324.839 167.898 324.856C163.811 324.895 159.721 324.929 155.636 324.835C153.2 324.78 152.1 323.481 152.844 320.773Z" fill="#1DA1F2"/>
<path d="M447.564 332.552C441.47 333.17 441.715 333.252 443.575 327.661C444.62 324.517 446.63 324.717 449.245 324.971C449.751 327.707 448.226 329.894 447.564 332.552Z" fill="#C4C4C4"/>
<path d="M261.673 77.5297C261.539 78.1179 261.236 78.5331 260.608 77.7592C260.876 77.5578 261.201 77.503 261.673 77.5297Z" fill="#282828"/>
<path d="M137.326 281.797C137.304 281.762 137.348 281.833 137.326 281.797V281.797Z" fill="white"/>
<path d="M148.828 338.943C148.876 338.803 148.983 338.771 149.249 338.787C149.289 339.034 149.205 339.323 148.828 338.943Z" fill="#F3F3F3"/>
<path d="M114.209 191.337C114.27 191.316 114.331 191.295 114.301 191.306C114.211 191.338 114.209 191.337 114.209 191.337Z" fill="white"/>
<path d="M172.859 358.641C172.917 358.62 172.974 358.597 172.942 358.605C172.853 358.636 172.857 358.639 172.859 358.641Z" fill="white"/>
<path d="M221.009 84.5332C220.951 84.5557 220.896 84.5809 220.929 84.573C221.016 84.5398 221.011 84.5359 221.009 84.5332Z" fill="white"/>
<path d="M386.355 89.2842C391.726 93.7855 393.811 99.5018 393.815 106.071C393.835 136.198 393.83 166.326 393.828 196.454C393.827 218.869 393.785 241.285 393.868 263.7C393.876 265.814 393.346 266.764 391.25 267.303C386.938 268.412 382.966 270.42 379.406 273.073C377.777 274.286 376.815 274.435 375.02 273.147C356.022 259.517 328.397 263.378 315.261 281.967C304.768 296.814 304.431 312.964 311.445 329.453C312.912 332.903 312.972 332.88 309.124 332.88C278.585 332.883 248.046 332.846 217.507 332.916C210.655 332.932 204.828 330.814 200.036 325.593C196.804 319.846 197.163 313.76 197.167 307.689C197.201 259.856 197.185 212.022 197.187 164.188C197.187 157.101 197.269 157.021 204.457 157.019C220.093 157.014 235.729 157.031 251.365 157.012C262.423 156.999 268.131 151.361 268.167 140.323C268.217 124.584 268.178 108.846 268.182 93.1067C268.183 91.8727 268.189 90.6395 268.259 89.4054C268.377 87.3167 269.424 86.2043 271.535 86.094C272.564 86.0403 273.591 86.024 274.62 86.0239C307.538 86.0222 340.455 86.0453 373.373 85.9961C377.92 85.9893 382.12 87.0038 386.355 89.2842Z" fill="#F9F9F9"/>
<path d="M431.002 281.91C435.184 284.84 437.27 289.108 438.911 293.491C444.421 308.2 441.673 321.952 433.477 334.891C424.024 349.816 410.904 361.044 396.688 371.159C390.755 375.38 384.88 379.684 379.005 383.985C377.996 384.724 377.273 385.617 375.863 384.447C366.776 376.908 356.507 370.967 347.409 363.43C339.338 356.744 331.729 349.616 325.31 341.054C324.894 339.652 324.065 338.778 323.056 337.787C322.92 337.638 322.797 337.442 322.783 337.327C318.002 328.72 315.176 319.698 315.893 309.871C317.004 294.64 323.861 282.951 338.206 276.843C348.667 272.39 359.419 272.753 369.883 277.517C371.947 278.457 373.269 280.527 375.71 281.35C375.915 281.498 375.961 281.479 375.948 281.501C377.22 282.667 379.044 282.881 380.299 284.161C380.927 284.803 381.85 284.275 382.551 283.802C383.486 283.173 384.475 282.592 385.306 281.848C391.541 276.271 399.258 274.477 407.179 274.055C414.889 273.644 422.527 274.688 429.084 280.009C429.307 280.088 429.511 280.099 429.596 280.155C429.797 280.376 429.931 280.526 430.2 280.753C430.319 280.846 430.439 280.983 430.444 281.073C430.432 281.469 430.538 281.72 431.002 281.91Z" fill="#1DA1F2"/>
<path d="M386.56 89.1823C386.033 89.3279 385.361 89.4271 384.831 89.1979C379.091 86.716 373.04 86.9666 366.985 86.9744C335.609 87.0144 304.233 87.032 272.857 86.9294C269.925 86.9198 269.039 87.6576 269.065 90.6656C269.209 107.536 269.094 124.407 269.151 141.278C269.181 150.28 263.082 158.288 252.476 158.074C235.509 157.733 218.529 158.045 201.556 157.929C198.88 157.911 198.075 158.563 198.079 161.34C198.164 212.57 198.15 263.801 198.116 315.031C198.114 317.667 198.523 320.124 199.773 322.448C200.198 323.236 200.829 324.043 200.043 325.207C195.725 321.405 194.024 316.279 194.017 310.688C193.955 259.361 194 208.033 193.948 156.706C193.946 154.505 194.64 153.992 196.753 154.002C213.93 154.083 231.107 154.075 248.285 154.029C256.857 154.006 262.836 149.644 264.525 142.232C264.863 140.749 264.89 139.173 264.893 137.64C264.918 120.565 264.961 103.49 264.855 86.4163C264.84 83.9823 265.291 83.0669 267.961 83.0743C302.418 83.1693 336.876 83.1631 371.334 83.1465C377.166 83.1437 382.199 85.047 386.56 89.1823Z" fill="#DCDCDC"/>
<path d="M258.181 142.943C258.043 143.382 257.961 143.565 257.668 143.792C253.661 147.519 249.009 148.011 243.888 147.89C232.277 147.616 220.655 147.821 209.038 147.774C208.011 147.77 206.563 148.435 206.018 147.074C205.492 145.757 206.542 144.746 207.431 143.893C214.401 137.206 221.105 130.252 227.965 123.455C237.161 114.344 246.234 105.11 255.473 96.0426C255.84 95.6828 256.169 95.2849 256.55 94.9398C257.09 94.4512 257.667 93.9104 258.449 94.2897C259.123 94.6172 258.955 95.345 258.96 95.9387C258.979 98.2003 258.968 100.462 258.968 102.724C258.968 113.313 258.934 123.902 258.99 134.491C259.005 137.266 258.826 140.001 258.181 142.943Z" fill="#1DA1F2"/>
<path d="M258.221 143.006C257.141 141.2 258.678 139.519 258.674 137.644C258.646 123.878 258.662 110.112 258.654 96.3469C258.653 95.8572 258.553 95.3675 258.397 93.9524C254.358 98.1108 250.83 101.814 247.224 105.44C241.099 111.602 234.92 117.71 228.773 123.851C223.43 129.187 218.11 134.546 212.76 139.875C210.947 141.68 209.054 143.405 207.24 145.209C206.752 145.694 206.151 146.311 206.576 147.08C206.922 147.705 207.671 147.5 208.261 147.5C222.129 147.508 235.998 147.489 249.866 147.531C251.036 147.535 251.785 146.986 252.546 146.298C253.855 145.115 255.282 144.159 257.302 143.867C256.207 146.623 253.908 148.152 250.962 148.167C234 148.253 217.038 148.215 200.076 148.202C199.399 148.201 198.464 148.398 198.243 147.494C197.983 146.429 198.937 145.88 199.578 145.24C212.442 132.376 225.31 119.515 238.175 106.651C244.135 100.691 250.082 94.7191 256.059 88.7767C256.839 88.001 257.479 86.9781 258.819 86.8047C259.688 87.7238 259.266 88.9065 259.269 89.9446C259.31 105.879 259.295 121.814 259.313 137.748C259.315 139.514 259.194 141.238 258.221 143.006Z" fill="#1DA1F2"/>
<path d="M375.857 281.298C374.338 281.751 373.135 280.919 371.991 280.054C365.095 274.838 357.113 274.331 348.983 274.984C344.741 275.324 340.571 276.372 336.701 278.339C331.865 280.798 327.838 284.117 324.476 288.446C321.858 291.816 320.149 295.481 318.757 299.447C315.491 308.747 316.099 317.945 319.166 327.103C320.253 330.351 321.606 333.511 322.803 336.961C319.999 335.141 319.164 331.833 317.582 329.015C309.427 314.49 311.023 295.193 321.831 282.614C327.499 276.018 335.131 272.203 343.723 271.172C355.758 269.729 366.734 272.534 375.857 281.298Z" fill="#1DA1F2"/>
<path d="M429.228 279.891C426.785 279.885 425.007 278.013 422.754 277.178C415.708 274.568 408.572 274.353 401.189 275.556C394.378 276.666 388.754 279.888 383.563 284.105C381.734 285.592 380.278 286.509 378.619 283.906C378.072 283.047 376.901 282.585 375.975 281.732C377.345 282.291 378.149 281.366 379.105 280.519C392.125 268.983 411.597 267.567 426.181 277.077C427.289 277.8 428.479 278.46 429.228 279.891Z" fill="#1DA1F2"/>
<path d="M322.918 337.846C324.467 337.899 325.294 338.787 325.292 340.614C324.202 340.158 323.415 339.227 322.918 337.846Z" fill="#1DA1F2"/>
<path d="M431.132 281.752C430.985 281.802 430.749 281.689 430.48 281.371C430.647 281.306 430.846 281.448 431.132 281.752Z" fill="#1DA1F2"/>
<path d="M430.273 280.689C430.145 280.734 429.972 280.621 429.739 280.36C429.863 280.319 430.045 280.425 430.273 280.689Z" fill="#1DA1F2"/>
<path d="M521.104 168.447C520.451 170.405 519.186 170.843 517.642 170.163C516.533 169.675 515.943 168.668 516.285 167.373C516.575 166.276 517.294 165.516 518.457 165.525C520.147 165.54 521.132 166.414 521.104 168.447Z" fill="#E6E6E6"/>
<path d="M367.257 428.877C365.832 430.796 364.366 430.951 362.934 429.292C362.206 428.447 362.264 427.418 362.906 426.481C363.552 425.538 364.484 425.17 365.545 425.541C366.972 426.04 367.563 427.129 367.257 428.877Z" fill="#E6E6E6"/>
<path d="M78.0025 297.416C74.0012 292.652 74.5061 288.294 79.181 285.577C81.2081 284.399 84.9825 284.923 86.9871 286.66C88.8356 288.262 89.6238 292.041 88.583 294.31C86.5513 298.739 82.5753 299.988 78.0025 297.416Z" fill="#1DA1F2"/>
<path d="M178.518 35.0046C179.999 36.3709 179.959 37.6477 178.742 38.8525C177.936 39.6499 176.869 39.758 175.918 39.2114C174.822 38.5811 174.447 37.4037 174.864 36.2931C175.451 34.7331 176.7 34.209 178.518 35.0046Z" fill="#DCDCDC"/>
<path d="M236.046 254.071C232.476 254.432 231.799 252.878 231.94 249.821C232.204 244.081 232.099 238.319 231.97 232.57C231.926 230.655 232.474 230.172 234.371 230.175C274.119 230.229 313.868 230.245 353.617 230.15C356.496 230.144 355.702 231.844 355.884 233.588C357.156 236.842 356.449 239.964 356.572 243.02C356.676 245.586 356.686 248.164 356.545 250.731C356.379 253.748 355.638 254.437 352.575 254.652C351.754 254.71 350.93 254.693 350.108 254.693C313.7 254.695 277.292 254.697 240.885 254.685C239.353 254.685 237.79 254.865 236.046 254.071Z" fill="#1DA1F2"/>
<path d="M236.059 196.534C232.513 196.856 231.811 195.291 231.944 192.243C232.193 186.495 232.101 180.727 231.967 174.972C231.923 173.051 232.467 172.6 234.357 172.602C274.048 172.65 313.739 172.658 353.43 172.553C356.392 172.545 355.746 174.278 355.909 176.167C356.422 177.393 356.583 178.397 356.586 179.44C356.6 183.863 356.656 188.287 356.566 192.709C356.49 196.44 355.743 197.122 351.952 197.264C351.232 197.291 350.512 197.281 349.792 197.281C313.687 197.282 277.582 197.285 241.477 197.271C239.744 197.27 237.967 197.514 236.059 196.534Z" fill="#1DA1F2"/>
<path d="M235.783 254.182C237.31 253.875 238.847 253.786 240.383 253.786C277.667 253.785 314.951 253.756 352.235 253.871C355.238 253.88 356 253.064 355.856 250.142C355.599 244.917 355.79 239.669 355.868 234.146C359.164 233.412 360.114 234.789 359.96 237.988C359.688 243.63 359.809 249.295 359.919 254.948C359.964 257.225 359.142 258.004 356.868 258.002C317.389 257.955 277.909 257.933 238.43 258.033C235.295 258.041 235.896 256.196 235.783 254.182Z" fill="#D7D7D7"/>
<path d="M235.813 196.613C237.035 196.312 238.264 196.228 239.494 196.228C277.109 196.223 314.725 196.193 352.34 196.295C355.188 196.302 355.962 195.515 355.848 192.732C355.634 187.5 355.804 182.252 355.896 176.727C359.291 175.931 360.094 177.47 359.958 180.592C359.711 186.239 359.806 191.905 359.923 197.56C359.972 199.886 359.066 200.579 356.835 200.577C317.749 200.533 278.664 200.532 239.578 200.574C236.91 200.577 235.411 199.794 235.813 196.613Z" fill="#D7D7D7"/>
<path d="M230.561 194.129C230.546 194.102 230.575 194.155 230.561 194.129V194.129Z" fill="#D7D7D7"/>
<path d="M80.0776 293.259C79.2733 291.669 79.5565 290.484 80.7853 289.56C81.6306 288.924 82.5296 289.105 83.3758 289.566C84.3867 290.117 84.7678 291.031 84.6214 292.141C84.3529 294.177 82.5662 294.7 80.0776 293.259Z" fill="#E6E6E6"/>
<path d="M350.155 242.566C350.171 248.174 350.171 248.177 344.775 248.177C310.219 248.178 275.662 248.141 241.106 248.245C238.253 248.254 237.293 247.49 237.591 244.68C237.817 242.544 237.755 240.356 237.601 238.208C237.46 236.24 238.266 235.813 240.09 235.815C275.983 235.855 311.876 235.85 347.769 235.799C349.654 235.796 350.374 236.36 350.179 238.254C350.043 239.577 350.153 240.925 350.155 242.566Z" fill="#F9F9F9"/>
<path d="M333.367 190.615C302.416 190.616 271.773 190.579 241.13 190.683C238.315 190.693 237.265 189.991 237.592 187.134C237.824 185.104 237.779 183.014 237.598 180.973C237.401 178.761 238.249 178.225 240.371 178.243C251.784 178.339 263.198 178.288 274.612 178.288C298.674 178.287 322.736 178.331 346.797 178.221C349.496 178.209 350.503 178.848 350.188 181.616C349.864 184.456 351.345 188.209 349.667 189.971C347.823 191.909 344.022 190.452 341.079 190.591C338.616 190.708 336.144 190.615 333.367 190.615Z" fill="#F9F9F9"/>
</svg>
