<svg width="419" height="386" viewBox="0 0 419 386" fill="none" xmlns="http://www.w3.org/2000/svg">
<path d="M318.553 317.695C318.553 328.961 318.553 340.228 318.553 351.725C244.541 351.725 170.822 351.725 96.6948 351.725C96.6948 270.781 96.6948 189.933 97.0156 108.697C104.037 108.745 110.709 108.826 117.246 107.069C117.306 108.798 117.342 110.177 117.342 111.557C117.344 182.86 117.344 254.162 117.344 325.465C117.344 326.563 117.344 327.662 117.344 329.293C117.963 328.302 118.25 327.841 118.6 327.64C118.923 328.673 119.183 329.446 119.546 330.358C120.024 330.399 120.4 330.301 121.098 330.148C178.575 330.089 235.731 330.083 292.887 330.083C293.574 330.083 294.261 330.16 295.006 330.305C295.243 330.345 295.422 330.281 295.795 330.169C296.122 330.125 296.256 330.127 296.649 330.037C297.171 328.903 297.66 327.862 297.66 326.821C297.697 273.699 297.697 220.577 297.655 167.455C297.655 166.437 297.108 165.419 296.691 164.191C296.25 163.636 295.933 163.29 295.553 162.831C295.303 162.799 295.117 162.881 294.614 163.032C282.938 163.106 271.58 163.133 260.221 163.109C247.835 163.082 235.449 163.007 222.939 162.78C222.21 162.72 221.605 162.833 220.724 162.827C220.447 137.546 220.447 112.385 220.447 86.9377C192.629 86.9377 165.357 86.9377 138.13 86.6864C140.669 80.8581 141.257 74.9944 140.925 68.9623C140.862 67.8269 141.288 66.6645 141.686 65.7324C142.556 66.0557 143.228 66.2533 143.899 66.2532C177.723 66.249 211.547 66.2279 245.37 66.2086C257.131 78.3136 268.895 90.4152 280.651 102.525C285.933 107.966 291.197 113.424 296.767 119.206C303.206 125.919 309.245 132.405 315.547 138.625C317.792 140.84 318.514 143.087 318.508 146.173C318.412 201.854 318.429 257.536 318.429 313.217C318.429 314.71 318.51 316.202 318.553 317.695ZM242.793 141.933C243.234 142.035 243.675 142.226 244.117 142.226C257.691 142.245 271.266 142.259 284.84 142.214C285.665 142.212 286.488 141.721 287.193 141.015C276.579 129.936 265.968 118.855 255.349 107.781C251.464 103.73 247.543 99.7137 243.683 95.6401C242.885 94.7982 242.371 94.3042 241.825 95.6333C241.584 95.5441 241.344 95.4549 241.103 95.3657C241.078 95.5864 241.031 95.8072 241.031 96.028C241.031 110.342 241.02 124.655 241.081 138.968C241.084 139.591 241.752 140.211 242.328 141.127C242.362 141.245 242.395 141.362 242.793 141.933Z" fill="#1DA1F2"/>
<path d="M318.812 317.686C318.51 316.202 318.429 314.709 318.429 313.217C318.429 257.535 318.412 201.854 318.508 146.173C318.514 143.087 317.792 140.84 315.547 138.625C309.245 132.405 303.206 125.918 296.963 119.345C297.629 118.837 298.489 118.114 299.149 118.264C310.646 120.887 321.763 124.325 332.068 130.45C341.126 135.835 349.388 142.041 356.551 149.677C366.036 159.788 373.189 171.321 378.044 184.409C382.854 197.376 385.116 210.638 384.757 224.401C384.455 235.932 382.157 247.052 378.084 257.854C374.536 267.264 369.846 276 363.699 283.962C363.224 284.578 363.021 285.405 362.451 286.254C359.087 284.538 357.36 285.319 357.207 288.734C357.1 291.103 357.186 293.481 357.186 296.214C354.499 296.214 352.23 296.158 349.963 296.227C346.511 296.331 345.71 297.92 347.434 301.11C339.16 307.76 330.431 313.654 320.396 317.376C319.975 317.533 319.513 317.579 318.812 317.686Z" fill="#1DA1F2" fill-opacity="0.25"/>
<path d="M95.9231 289.363C95.9231 305.121 95.8733 320.534 95.9706 335.946C95.9875 338.611 95.3206 339.703 92.5235 340.72C78.6976 345.748 65.1538 344.808 52.1165 338.786C39.4958 332.956 30.4182 323.326 25.5479 310.11C19.6625 294.139 20.7676 278.784 29.4599 263.958C37.1715 250.804 48.6942 242.726 63.1794 239.325C72.9405 237.033 82.9901 237.532 92.6357 241.124C94.9203 241.974 96.0272 243.158 95.9972 245.887C95.8391 260.262 95.9231 274.641 95.9231 289.363Z" fill="#1DA1F2" fill-opacity="0.25"/>
<path d="M141.488 65.5156C141.288 66.6655 140.862 67.8279 140.925 68.9633C141.257 74.9954 140.669 80.8591 138.025 86.9067C136.84 89.1629 135.888 91.003 134.756 92.7241C130.731 98.8414 124.903 102.861 118.49 106.349C118.332 106.335 118.023 106.408 117.868 106.399C117.498 106.43 117.329 106.54 117.205 106.72C110.709 108.827 104.037 108.746 97.0253 108.377C92.2229 106.237 87.3634 104.554 83.3089 101.721C70.9123 93.0575 65.5296 78.2514 68.9551 63.832C72.3945 49.3541 84.2008 38.4034 98.9561 36.005C116.722 33.1173 134.053 44.0795 139.604 61.6735C139.957 62.7921 140.631 63.8094 141.387 65.0989C141.619 65.3239 141.488 65.5156 141.488 65.5156ZM110.823 55.0653C105.549 51.8279 100.105 52.6092 96.7449 57.0859C91.8002 63.6733 91.7434 77.5268 96.6338 84.1724C100.45 89.3582 108.294 89.3044 112.427 84.3734C117.31 78.5486 117.553 60.0847 110.823 55.0653Z" fill="#1DA1F2"/>
<path d="M283.095 60.7816C269.256 65.3451 253.253 58.2577 248.844 42.8991C245.046 29.6674 251.912 15.2258 265.485 10.4267C280.288 5.19264 295.133 13.0364 299.83 26.8017C304.246 39.7447 299.222 54.7187 283.095 60.7816Z" fill="#1DA1F2" fill-opacity="0.25"/>
<path d="M73.1118 153.954C73.1184 135.262 80.6134 120.234 95.5937 108.199C95.5937 137.58 95.5937 166.457 95.5937 195.259C87.9306 192.181 76.234 177.167 74.1062 159.891C75.7757 159.56 77.2506 159.862 78.4737 159.439C79.6095 159.045 80.4766 157.877 81.462 157.049C80.4979 156.048 79.6942 154.527 78.5316 154.168C76.8621 153.653 74.9312 153.984 73.1118 153.954Z" fill="#1DA1F2" fill-opacity="0.25"/>
<path d="M35.8723 225.749C31.2518 231.874 26.8102 232.512 20.921 230.681C14.4162 228.66 10.9092 223.257 11.7069 216.781C12.4953 210.38 16.7162 204.345 26.9325 205.05C32.7544 205.453 38.0475 210.969 37.7997 217.374C37.693 220.132 36.6791 222.854 35.8723 225.749Z" fill="#1DA1F2" fill-opacity="0.25"/>
<path d="M72.8159 153.975C74.9313 153.985 76.8622 153.654 78.5317 154.169C79.6943 154.528 80.498 156.049 81.4621 157.05C80.4767 157.878 79.6096 159.046 78.4738 159.44C77.2507 159.863 75.7758 159.561 74.0976 159.617C71.7526 159.213 70.7581 159.846 70.9254 162.104C71.0606 163.93 71.2635 165.874 70.7815 167.58C70.4596 168.72 68.989 169.535 68.0325 170.496C67.1333 169.506 65.69 168.633 65.4473 167.502C64.928 165.083 65.0297 162.53 64.8473 159.545C62.4631 159.545 60.2059 159.518 57.9497 159.554C56.0205 159.584 54.0766 159.117 54.6384 156.857C54.9256 155.702 56.7845 154.432 58.1263 154.157C60.3111 153.71 62.6542 154.037 65.365 154.037C65.365 151.467 65.0607 149.155 65.4751 146.98C65.7386 145.596 67.0691 144.416 67.9211 143.145C68.9314 144.345 70.3825 145.402 70.835 146.785C71.3443 148.342 70.7983 150.214 71.0252 151.907C71.1257 152.657 71.9979 153.303 72.8159 153.975Z" fill="#1DA1F2"/>
<path d="M347.706 301.205C345.71 297.921 346.511 296.332 349.963 296.228C352.23 296.159 354.499 296.215 357.186 296.215C357.186 293.482 357.1 291.104 357.207 288.735C357.36 285.32 359.087 284.539 362.422 286.501C362.66 288.574 362.885 290.543 362.667 292.462C362.307 295.617 363.674 296.577 366.6 296.231C367.955 296.07 369.471 295.87 370.685 296.314C371.834 296.733 372.684 297.971 373.665 298.85C372.718 299.802 371.879 301.395 370.801 301.577C368.358 301.989 365.798 301.707 362.713 301.707C362.713 304.067 362.7 306.19 362.717 308.313C362.732 310.214 362.809 312.198 360.127 312.24C357.316 312.284 357.206 310.231 357.193 308.186C357.18 306.247 357.19 304.307 357.19 302.077C354.001 301.808 350.99 301.554 347.706 301.205Z" fill="#1DA1F2"/>
<path d="M141.686 65.7336C141.488 65.5158 141.618 65.3241 141.634 65.2094C175.461 65.1043 209.273 65.1138 243.547 65.234C244.374 65.442 244.739 65.5395 245.104 65.6369C245.104 65.6369 245.268 65.909 245.319 66.0594C211.547 66.2291 177.723 66.2502 143.899 66.2544C143.228 66.2545 142.556 66.0569 141.686 65.7336Z" fill="#1450A6"/>
<path d="M244.997 65.4472C244.739 65.5376 244.374 65.4401 243.866 65.219C244.112 65.15 244.501 65.2047 244.997 65.4472Z" fill="#87C2E6"/>
<path d="M118.648 106.362C124.903 102.86 130.73 98.8402 134.756 92.7229C135.888 91.0017 136.84 89.1616 137.979 87.1568C165.357 86.9375 192.629 86.9375 220.447 86.9375C220.447 112.385 220.447 137.546 220.978 162.882C222.027 163.022 222.545 162.987 223.063 162.952C235.449 163.006 247.835 163.081 260.221 163.108C271.58 163.133 282.938 163.106 294.787 163.073C295.39 163.01 295.503 162.977 295.617 162.943C295.933 163.289 296.25 163.636 296.6 164.499C296.62 218.798 296.607 272.579 296.583 326.361C296.582 327.617 296.456 328.873 296.389 330.13C296.255 330.127 296.122 330.124 295.633 330.125C295.277 330.129 294.948 330.201 294.948 330.201C294.261 330.16 293.574 330.083 292.887 330.083C235.731 330.083 178.575 330.089 120.877 330.106C120.037 330.152 119.74 330.185 119.443 330.219C119.183 329.445 118.923 328.672 118.648 327.317C118.641 254.52 118.648 182.304 118.649 110.089C118.649 109.517 118.572 108.945 118.594 108.128C118.654 107.376 118.651 106.869 118.648 106.362ZM196.28 239.639C197.086 239.053 198.058 238.604 198.672 237.86C204.587 230.684 214.968 230.574 220.793 237.755C222.033 239.282 223.268 240.342 225.098 238.996C226.912 237.662 226.321 236.086 225.266 234.471C218.785 224.557 200.533 224.609 194.209 234.6C192.802 236.822 192.728 238.724 196.28 239.639ZM233.15 201.703C230.328 202.993 228.533 205.287 229.573 208.206C230.219 210.017 232.292 212.073 234.086 212.5C235.719 212.889 238.538 211.73 239.55 210.328C240.56 208.929 240.58 206.166 239.947 204.386C239.004 201.734 236.386 201.107 233.15 201.703ZM175.108 209.858C177.566 212.899 180.457 213.716 183.121 212.016C185.697 210.371 186.406 207.94 185.498 205.124C184.631 202.433 181.684 200.963 178.82 201.584C175.466 202.31 174.062 205.073 175.108 209.858Z" fill="#F9F9F9"/>
<path d="M242.104 95.9146C242.371 94.3036 242.885 94.7977 243.683 95.6396C247.543 99.7132 251.464 103.729 255.349 107.78C265.968 118.854 276.579 129.936 286.93 141.243C271.921 141.473 257.175 141.476 242.429 141.479C242.395 141.362 242.361 141.244 242.266 140.661C242.171 125.435 242.137 110.675 242.104 95.9146Z" fill="#F9F9F9"/>
<path d="M118.531 108.374C118.572 108.946 118.649 109.518 118.649 110.09C118.648 182.305 118.641 254.52 118.586 327.058C118.25 327.841 117.963 328.302 117.344 329.293C117.344 327.662 117.344 326.564 117.344 325.465C117.344 254.163 117.344 182.86 117.342 111.557C117.342 110.178 117.306 108.798 117.246 107.069C117.329 106.539 117.498 106.429 117.87 106.61C118.196 107.345 118.363 107.859 118.531 108.374Z" fill="#1E57A6"/>
<path d="M296.649 330.037C296.456 328.874 296.582 327.618 296.583 326.361C296.607 272.58 296.62 218.798 296.725 164.709C297.107 165.419 297.654 166.437 297.655 167.455C297.697 220.577 297.697 273.699 297.66 326.821C297.66 327.863 297.171 328.903 296.649 330.037Z" fill="#0B4CA0"/>
<path d="M241.965 95.7758C242.137 110.677 242.171 125.437 242.157 140.515C241.752 140.212 241.084 139.593 241.081 138.97C241.02 124.657 241.031 110.343 241.032 96.0295C241.032 95.8088 241.078 95.588 241.103 95.3672C241.344 95.4564 241.585 95.5456 241.965 95.7758Z" fill="#1450A6"/>
<path d="M242.611 141.707C257.175 141.477 271.921 141.474 286.99 141.465C286.488 141.722 285.665 142.212 284.84 142.215C271.266 142.26 257.691 142.246 244.117 142.227C243.675 142.226 243.234 142.036 242.611 141.707Z" fill="#0B4CA0"/>
<path d="M222.938 162.78C222.545 162.988 222.027 163.022 221.255 163.002C221.605 162.833 222.209 162.72 222.938 162.78Z" fill="#1450A6"/>
<path d="M119.546 330.359C119.74 330.186 120.037 330.153 120.555 330.161C120.4 330.302 120.024 330.4 119.546 330.359Z" fill="black"/>
<path d="M295.553 162.831C295.503 162.977 295.39 163.011 295.104 163.003C295.117 162.881 295.303 162.8 295.553 162.831Z" fill="#1450A6"/>
<path d="M295.006 330.306C294.949 330.201 295.277 330.13 295.439 330.173C295.422 330.281 295.243 330.346 295.006 330.306Z" fill="black"/>
<path d="M111.038 55.207C117.553 60.0832 117.31 78.5472 112.427 84.3719C108.294 89.303 100.45 89.3568 96.6338 84.171C91.7435 77.5254 91.8003 63.6719 96.745 57.0845C100.105 52.6078 105.549 51.8265 111.038 55.207ZM98.4504 77.6206C98.7071 78.3803 98.9044 79.1667 99.2315 79.8948C100.302 82.278 101.557 84.4296 104.698 84.3155C107.924 84.1984 109.374 82.0401 110.129 79.3903C111.831 73.421 111.902 67.3741 110.079 61.4205C109.268 58.7726 107.642 56.5876 104.47 56.6701C101.471 56.7482 99.671 58.9011 99.3347 61.4368C98.6494 66.6027 98.5832 71.8507 98.4504 77.6206Z" fill="#F9FBFE"/>
<path d="M118.594 108.127C118.363 107.859 118.196 107.344 118.025 106.618C118.023 106.406 118.332 106.333 118.49 106.347C118.651 106.868 118.654 107.375 118.594 108.127Z" fill="#2B62AD"/>
<path d="M196.014 239.637C192.728 238.723 192.802 236.821 194.209 234.599C200.533 224.608 218.785 224.556 225.266 234.471C226.321 236.085 226.911 237.662 225.098 238.995C223.268 240.341 222.032 239.281 220.793 237.754C214.967 230.574 204.587 230.683 198.671 237.859C198.058 238.603 197.086 239.052 196.014 239.637Z" fill="#1DA1F2"/>
<path d="M233.396 201.645C236.386 201.109 239.004 201.735 239.947 204.388C240.58 206.167 240.56 208.931 239.551 210.329C238.538 211.732 235.719 212.891 234.086 212.502C232.292 212.074 230.219 210.019 229.573 208.207C228.533 205.289 230.328 202.995 233.396 201.645Z" fill="#1DA1F2"/>
<path d="M174.974 209.637C174.062 205.074 175.466 202.311 178.82 201.584C181.684 200.964 184.631 202.434 185.498 205.125C186.406 207.941 185.697 210.372 183.121 212.016C180.457 213.717 177.566 212.9 174.974 209.637Z" fill="#1DA1F2"/>
<path d="M98.356 77.3429C98.583 71.8508 98.6493 66.6029 99.3345 61.4369C99.6708 58.9012 101.47 56.7483 104.47 56.6702C107.642 56.5877 109.267 58.7727 110.078 61.4206C111.902 67.3742 111.831 73.4211 110.129 79.3905C109.374 82.0402 107.924 84.1986 104.697 84.3157C101.557 84.4297 100.302 82.2781 99.2313 79.8949C98.9043 79.1668 98.7069 78.3804 98.356 77.3429Z" fill="#1DA1F2"/>
</svg>
