<svg width="38" height="38" viewBox="0 0 38 38" fill="none" xmlns="http://www.w3.org/2000/svg">
<circle cx="19" cy="19" r="19" fill="#0CEAEF"/>
<g clip-path="url(#clip0_1022_1583)">
<path d="M14.2857 27.2353H10.75V16.1428H14.2857V27.2353ZM27.25 27.2353H23.7143V21.3097C23.7143 19.7656 23.1297 18.9969 21.9712 18.9969C21.0531 18.9969 20.4709 19.4273 20.1786 20.2892C20.1786 21.689 20.1786 27.2353 20.1786 27.2353H16.6429C16.6429 27.2353 16.69 17.2521 16.6429 16.1428H19.4337L19.6494 18.3613H19.7225C20.4473 17.2521 21.6058 16.5 23.1945 16.5C24.4026 16.5 25.3796 16.8161 26.1256 17.6104C26.8764 18.4057 27.25 19.4728 27.25 20.9714V27.2353Z" fill="black"/>
<path d="M12.5177 15.0335C13.5266 15.0335 14.3445 14.2886 14.3445 13.3697C14.3445 12.4507 13.5266 11.7058 12.5177 11.7058C11.5088 11.7058 10.6909 12.4507 10.6909 13.3697C10.6909 14.2886 11.5088 15.0335 12.5177 15.0335Z" fill="black"/>
</g>
<defs>
<clipPath id="clip0_1022_1583">
<rect width="18" height="16.9412" fill="white" transform="translate(10 11)"/>
</clipPath>
</defs>
</svg>
