<svg width="392" height="511" viewBox="0 0 392 511" fill="none" xmlns="http://www.w3.org/2000/svg">
<path d="M394.777 2.20033e-05H53.9455C49.9271 -0.00718273 46.0697 1.7552 43.2169 4.9017C40.3641 8.04819 38.7482 12.3227 38.7226 16.7903V132.196L0 184.935L38.7226 169.652V494.075C38.7226 498.564 40.3265 502.869 43.1813 506.043C46.0361 509.217 49.9081 511 53.9455 511H394.777C398.815 511 402.687 509.217 405.541 506.043C408.396 502.869 410 498.564 410 494.075V16.7903C409.968 12.3249 408.35 8.05451 405.499 4.90953C402.647 1.76455 398.794 -0.000119084 394.777 2.20033e-05Z" fill="black"/>
<path d="M218.247 184.962C205.858 184.962 193.748 181.285 183.447 174.395C173.147 167.505 165.118 157.712 160.377 146.255C155.637 134.798 154.396 122.19 156.813 110.027C159.23 97.8642 165.196 86.6918 173.956 77.9227C182.716 69.1536 193.876 63.1818 206.027 60.7625C218.177 58.3431 230.772 59.5848 242.217 64.3306C253.663 69.0763 263.445 77.1131 270.328 87.4244C277.211 97.7357 280.884 109.859 280.884 122.26C280.865 138.884 274.26 154.821 262.517 166.576C250.774 178.331 234.853 184.943 218.247 184.962ZM218.247 62.0018C206.335 62.0018 194.692 65.538 184.788 72.1629C174.884 78.7879 167.166 88.2041 162.609 99.2206C158.051 110.237 156.86 122.359 159.186 134.053C161.511 145.748 167.249 156.489 175.673 164.919C184.098 173.348 194.83 179.088 206.513 181.411C218.196 183.734 230.305 182.537 241.309 177.971C252.312 173.404 261.715 165.674 268.33 155.757C274.944 145.841 278.472 134.184 278.467 122.26C278.441 106.282 272.088 90.9665 260.799 79.6708C249.51 68.375 234.208 62.021 218.247 62.0018Z" fill="#D1D3D4"/>
<path d="M262.248 106.457C261.82 107.15 261.335 107.806 260.798 108.418L209.257 159.939C208.992 160.339 208.633 160.666 208.211 160.893C207.789 161.119 207.318 161.238 206.839 161.238C206.36 161.238 205.889 161.119 205.467 160.893C205.045 160.666 204.686 160.339 204.422 159.939C194.752 149.969 185.082 139.982 175.412 129.98C175.047 129.705 174.753 129.347 174.557 128.935C174.36 128.522 174.267 128.069 174.283 127.612C174.3 127.156 174.426 126.71 174.652 126.313C174.878 125.916 175.197 125.58 175.581 125.333L182.833 118.775C183.094 118.447 183.425 118.183 183.801 118.001C184.178 117.819 184.591 117.725 185.009 117.725C185.427 117.725 185.84 117.819 186.217 118.001C186.594 118.183 186.924 118.447 187.185 118.775L204.325 136.248C206.114 138.063 207.443 138.087 209.16 136.248L249.194 96.3417C249.454 95.9371 249.812 95.6044 250.235 95.374C250.657 95.1437 251.13 95.0229 251.611 95.0229C252.092 95.0229 252.565 95.1437 252.988 95.374C253.41 95.6044 253.768 95.9371 254.029 96.3417C256.301 98.6165 258.574 100.891 260.798 103.19C261.311 103.792 261.78 104.431 262.2 105.102L262.248 106.457Z" fill="#0CEAEF"/>
<path d="M146.979 86.928C146.729 86.9268 146.485 86.851 146.278 86.7102L119.685 68.3182C119.427 68.1289 119.252 67.8463 119.197 67.53C119.143 67.2138 119.214 66.8889 119.395 66.6242C119.485 66.4941 119.599 66.3832 119.732 66.298C119.865 66.2128 120.013 66.1549 120.168 66.1279C120.324 66.1008 120.483 66.1051 120.637 66.1405C120.79 66.1758 120.935 66.2415 121.063 66.3338L147.656 84.7258C147.788 84.8133 147.901 84.9265 147.988 85.0585C148.076 85.1904 148.136 85.3386 148.165 85.4943C148.194 85.6499 148.192 85.8099 148.159 85.9647C148.125 86.1195 148.061 86.266 147.97 86.3956C147.86 86.5581 147.713 86.6915 147.54 86.7842C147.368 86.877 147.175 86.9263 146.979 86.928Z" fill="#D1D3D4"/>
<path d="M120.437 178.428C120.243 178.433 120.05 178.39 119.877 178.301C119.704 178.212 119.555 178.081 119.446 177.92C119.265 177.655 119.194 177.33 119.248 177.014C119.302 176.698 119.477 176.415 119.736 176.226L146.329 157.834C146.46 157.742 146.608 157.678 146.765 157.644C146.921 157.61 147.083 157.608 147.241 157.637C147.398 157.666 147.548 157.727 147.682 157.814C147.816 157.902 147.931 158.016 148.021 158.149C148.112 158.278 148.176 158.425 148.21 158.58C148.243 158.734 148.245 158.894 148.216 159.05C148.187 159.206 148.126 159.354 148.039 159.486C147.951 159.618 147.839 159.731 147.707 159.818L121.114 178.21C120.918 178.354 120.68 178.43 120.437 178.428Z" fill="#D1D3D4"/>
<path d="M144.202 123.47H120.486C120.166 123.47 119.858 123.343 119.631 123.116C119.405 122.889 119.277 122.581 119.277 122.26C119.277 121.939 119.405 121.631 119.631 121.404C119.858 121.178 120.166 121.05 120.486 121.05H144.202C144.522 121.05 144.83 121.178 145.056 121.404C145.283 121.631 145.411 121.939 145.411 122.26C145.411 122.581 145.283 122.889 145.056 123.116C144.83 123.343 144.522 123.47 144.202 123.47Z" fill="#D1D3D4"/>
<path d="M291.956 86.928C291.761 86.9263 291.568 86.877 291.395 86.7842C291.223 86.6915 291.075 86.5581 290.965 86.3956C290.874 86.266 290.81 86.1195 290.777 85.9647C290.743 85.8099 290.741 85.6499 290.77 85.4943C290.8 85.3386 290.86 85.1904 290.947 85.0585C291.035 84.9265 291.148 84.8133 291.28 84.7258L317.872 66.3338C318 66.2415 318.145 66.1758 318.299 66.1405C318.453 66.1051 318.612 66.1008 318.767 66.1279C318.923 66.1549 319.071 66.2128 319.204 66.298C319.336 66.3832 319.451 66.4941 319.54 66.6242C319.633 66.7542 319.699 66.9014 319.735 67.0571C319.77 67.2129 319.775 67.3742 319.748 67.5317C319.721 67.6892 319.663 67.8398 319.578 67.9748C319.492 68.1098 319.381 68.2265 319.25 68.3182L292.658 86.7102C292.451 86.851 292.207 86.9268 291.956 86.928Z" fill="#D1D3D4"/>
<path d="M318.502 178.428C318.26 178.427 318.023 178.351 317.825 178.21L291.233 159.818C291.101 159.731 290.988 159.618 290.9 159.486C290.813 159.354 290.753 159.206 290.724 159.05C290.694 158.894 290.696 158.734 290.73 158.58C290.763 158.425 290.828 158.278 290.918 158.149C291.008 158.016 291.123 157.902 291.257 157.814C291.391 157.727 291.541 157.666 291.699 157.637C291.856 157.608 292.018 157.61 292.175 157.644C292.331 157.678 292.479 157.742 292.611 157.834L319.203 176.226C319.334 176.318 319.445 176.434 319.531 176.569C319.616 176.704 319.674 176.855 319.701 177.012C319.728 177.17 319.723 177.331 319.688 177.487C319.652 177.643 319.586 177.79 319.493 177.92C319.384 178.081 319.236 178.212 319.063 178.301C318.889 178.39 318.697 178.433 318.502 178.428Z" fill="#D1D3D4"/>
<path d="M318.503 123.47H294.787C294.466 123.47 294.159 123.343 293.932 123.116C293.705 122.889 293.578 122.581 293.578 122.26C293.578 121.939 293.705 121.631 293.932 121.404C294.159 121.178 294.466 121.05 294.787 121.05H318.503C318.823 121.05 319.131 121.178 319.357 121.404C319.584 121.631 319.711 121.939 319.711 122.26C319.711 122.581 319.584 122.889 319.357 123.116C319.131 123.343 318.823 123.47 318.503 123.47Z" fill="#D1D3D4"/>
</svg>
