<svg xmlns="http://www.w3.org/2000/svg" width="60" height="50" viewBox="0 0 30 40" fill="none">
  <g clip-path="url(#clip0_634_669)">
    <path fill-rule="evenodd" clip-rule="evenodd" d="M30 10.5262V36.8419C30 38.5862 28.6102 40 26.8965 40H3.10347C1.38918 40 0 38.5862 0 36.8419V3.15812C0 1.41375 1.38918 0 3.10347 0H19.6549L30 10.5262Z" fill="#CB0606"/>
    <path fill-rule="evenodd" clip-rule="evenodd" d="M29.9999 9.93687V11.2469H21.5429C19.7919 11.2469 18.9844 9.79687 18.9844 8.00875V0H20.2652L29.9999 9.93687Z" fill="#FB8D8D"/>
    <path fill-rule="evenodd" clip-rule="evenodd" d="M23.0245 21.2793C22.7575 21.1893 22.5004 21.1437 22.2524 21.1437C21.9708 21.1437 21.7773 21.2031 21.6714 21.3218C21.5661 21.4406 21.5134 21.6506 21.5134 21.9525V22.5293H22.6969V23.6881H21.5134V28.46H20.0796V23.6881H19.3406V22.5293H20.0796V21.9525C20.0796 21.2175 20.2583 20.6862 20.6159 20.3581C20.9734 20.03 21.511 19.8662 22.2298 19.8662C22.5671 19.8662 22.9247 19.9131 23.3024 20.0075L23.0245 21.2793ZM17.0183 27.8831C16.7514 28.1131 16.4698 28.2962 16.1734 28.4318C15.8771 28.5675 15.5404 28.635 15.1626 28.635C14.4292 28.635 13.8677 28.3656 13.479 27.8268C13.0896 27.2875 12.8955 26.5262 12.8955 25.5425C12.8955 24.5362 13.1092 23.7543 13.5371 23.1962C13.9651 22.6387 14.5657 22.3593 15.3402 22.3593C15.6145 22.3593 15.8955 22.4168 16.1845 22.5318C16.4734 22.6468 16.7128 22.7931 16.9014 22.97V20.0412H18.3353V28.46H17.0183V27.8831ZM16.9014 24.1743C16.7496 24.035 16.5616 23.9112 16.3375 23.8037C16.1134 23.6968 15.8845 23.6431 15.6512 23.6431C15.2661 23.6431 14.9569 23.8118 14.7237 24.1487C14.4898 24.4862 14.3734 24.9431 14.3734 25.52C14.3734 26.0893 14.469 26.5356 14.6594 26.86C14.8504 27.1843 15.1455 27.3462 15.5459 27.3462C15.7828 27.3462 16.0247 27.2906 16.2708 27.1793C16.5169 27.0681 16.7275 26.9312 16.9014 26.7693V24.1743ZM10.7728 28.2506C10.4208 28.5068 10.0008 28.635 9.51161 28.635C8.86692 28.635 8.31712 28.43 7.86161 28.0187V30.6931H6.42773V22.5293H7.75018V23.1112C8.01712 22.8775 8.29753 22.6937 8.59202 22.56C8.88651 22.4262 9.22447 22.3593 9.6059 22.3593C10.343 22.3593 10.9045 22.6231 11.2896 23.1512C11.6747 23.6787 11.8675 24.4456 11.8675 25.4518C11.8675 26.0893 11.7732 26.6506 11.5841 27.1368C11.3949 27.6231 11.1249 27.9943 10.7728 28.2506ZM10.0951 24.1262C9.89855 23.8037 9.6059 23.6431 9.21712 23.6431C8.98386 23.6431 8.74386 23.6987 8.49773 23.8093C8.251 23.9206 8.03916 24.0575 7.86161 24.2193V26.8143C8.01345 26.9543 8.20141 27.0775 8.42549 27.185C8.64957 27.2925 8.87978 27.3462 9.11733 27.3462C9.50977 27.3462 9.82018 27.1756 10.0479 26.8343C10.2757 26.4931 10.3896 26.04 10.3896 25.475C10.3896 24.8981 10.291 24.4487 10.0951 24.1262Z" fill="white"/>
  </g>
  <defs>
    <clipPath id="clip0_634_669">
      <rect width="30" height="40" fill="white"/>
    </clipPath>
  </defs>
</svg>