<svg width="342" height="467" viewBox="0 0 342 467" fill="none" xmlns="http://www.w3.org/2000/svg">
<path d="M233.143 207.669L248.929 280.269L308.279 212.751L332.454 234.12C332.454 234.12 248.373 359.282 214.818 351.102C181.263 342.923 190.401 295.442 183.27 244.405C176.138 193.367 233.143 207.669 233.143 207.669Z" fill="white"/>
<path d="M218.057 352.7C216.869 352.701 215.684 352.563 214.527 352.288C188.975 346.045 187.403 318.408 185.517 283.415C184.816 270.903 184.067 257.981 182.206 244.574C180.199 230.223 182.979 219.527 190.498 212.775C205.22 199.562 232.417 206.193 233.553 206.483C233.77 206.544 233.967 206.661 234.124 206.823C234.281 206.984 234.392 207.184 234.448 207.403L249.726 277.583L307.48 211.855C307.697 211.612 308.001 211.464 308.326 211.444C308.643 211.428 308.954 211.531 309.197 211.735L333.372 233.127C333.592 233.319 333.734 233.586 333.77 233.877C333.805 234.167 333.732 234.46 333.565 234.7C330.036 239.758 253.764 352.675 218.057 352.7ZM216.655 207.04C208.363 207.04 198.645 208.588 191.996 214.59C185.348 220.592 182.592 230.756 184.478 244.235C186.364 257.714 187.089 270.71 187.814 283.27C189.748 317.271 191.295 344.109 215.083 349.941C228.307 353.135 252.555 334.138 285.191 294.91C307.722 267.83 327.159 239.589 330.761 234.41L308.351 214.517L249.823 281.14C249.677 281.31 249.487 281.437 249.273 281.505C249.06 281.574 248.832 281.581 248.614 281.527C248.395 281.471 248.196 281.355 248.038 281.193C247.88 281.031 247.77 280.828 247.72 280.608L232.103 208.782C227.027 207.671 221.85 207.087 216.655 207.04Z" fill="#3C4242"/>
<path d="M39.526 421.96C34.691 454.678 35.4404 463.681 35.4404 463.681L235.899 459.664L209.525 344.98L55.8199 361.46C48.2426 380.985 42.78 401.268 39.526 421.96Z" fill="#3C4242"/>
<path d="M35.4375 464.891C35.1352 464.898 34.8417 464.789 34.6169 464.587C34.3922 464.384 34.2533 464.103 34.2287 463.802C34.2287 463.414 33.4551 454.267 38.3143 421.79C41.6036 401.001 47.0982 380.623 54.7049 361C54.789 360.798 54.9251 360.623 55.0992 360.491C55.2734 360.359 55.4794 360.276 55.6961 360.25L209.377 343.77C209.67 343.732 209.966 343.806 210.207 343.976C210.449 344.146 210.618 344.401 210.682 344.689L237.081 459.397C237.121 459.574 237.12 459.757 237.078 459.934C237.036 460.11 236.955 460.274 236.839 460.414C236.733 460.557 236.595 460.673 236.435 460.753C236.275 460.833 236.099 460.874 235.921 460.873L35.4616 464.891H35.4375ZM40.7076 422.153C36.8154 448.144 36.5495 459.179 36.5979 462.446L234.374 458.502L208.579 346.286L56.6873 362.573C49.3035 381.822 43.9479 401.791 40.7076 422.153Z" fill="#3C4242"/>
<path d="M37.4211 409.69L225.382 388.515C207.879 276.687 198.958 335.808 220.112 231.215L242.401 225.165C232.054 171.127 206.622 147.411 206.622 147.411C181.794 102.665 121.26 128.849 121.26 128.849C121.26 128.849 51.8294 134.415 33.9158 194.48C22.0458 234.216 42.4253 289.634 44.9637 338.01C45.6648 351.538 40.999 350.981 37.4211 409.69Z" fill="#0CEAEF"/>
<path d="M173.043 157.527C166.056 156.462 159.336 155.276 152.107 157.212C141.374 160.14 131.921 166.36 120.873 168.949C109.076 171.684 96.2147 171.78 84.1514 172.337C80.6218 172.506 84.4415 176.983 81.3954 175.168C70.6859 168.78 69.8398 154.235 68.8486 143.321C66.2173 118.104 67.0306 92.6453 71.2661 67.6478C75.3275 45.8678 79.534 25.2252 100.639 14.0932C116.014 5.98623 137.627 1.14622 154.476 7.14782C171.326 13.1494 185.396 28.5648 191.271 45.6258C197.774 64.5018 199.901 83.644 210.828 100.923C215.663 108.546 221.635 115.975 222.916 124.905C224.318 135.674 217.936 146.516 208.774 152.324C199.611 158.132 188.176 159.584 177.346 158.132C175.847 157.962 174.445 157.744 173.043 157.527Z" fill="white"/>
<path d="M82.4112 176.814C81.8219 176.751 81.2572 176.543 80.7673 176.209C69.9611 169.772 68.6798 155.905 67.7612 144.749V143.418C65.1986 114.789 65.9964 89.9359 70.1787 67.4057C74.095 46.3759 78.1564 24.6201 100.18 13.0041C114.032 5.74413 136.708 -0.523679 154.985 5.98612C171.907 12.0119 186.243 27.0401 192.504 45.2143C194.632 51.3611 196.3 57.6047 197.919 63.6547C201.401 76.5533 204.664 88.7259 211.941 100.245C212.811 101.649 213.73 103.028 214.648 104.408C218.807 110.675 223.11 117.161 224.077 124.736C225.479 135.384 219.58 146.878 209.402 153.316C198.524 160.213 185.904 160.382 177.25 159.317L172.922 158.688L171.883 158.543C165.331 157.526 159.118 156.583 152.543 158.374C147.575 159.851 142.726 161.703 138.038 163.915C132.601 166.495 126.936 168.561 121.115 170.086C110.834 172.123 100.385 173.192 89.9055 173.281L84.1518 173.523C84.0008 173.487 83.8435 173.487 83.6925 173.523C83.6501 173.803 83.6501 174.089 83.6925 174.37C83.8134 174.735 83.8228 175.128 83.7194 175.499C83.6161 175.87 83.4047 176.201 83.1123 176.451C82.9159 176.633 82.6735 176.759 82.4112 176.814ZM137.844 5.71992C125.068 6.00949 112.533 9.25641 101.219 15.2063C80.2355 26.2657 76.2949 47.4165 72.4753 67.8897C68.3172 90.2021 67.6403 114.838 70.0578 143.249L70.1787 144.579C71.0973 154.913 72.2094 167.715 81.3233 173.62C81.323 173.04 81.519 172.476 81.8794 172.022C82.1573 171.709 82.5004 171.459 82.8845 171.292C83.2687 171.125 83.6847 171.044 84.1035 171.054L89.8571 170.812C100.177 170.786 110.471 169.798 120.608 167.86C126.248 166.359 131.735 164.333 136.998 161.81C141.784 159.561 146.729 157.668 151.793 156.147C158.901 154.235 165.356 155.228 172.173 156.147L173.213 156.316C174.615 156.51 176.017 156.728 177.443 156.897C185.735 157.938 197.75 157.793 208.025 151.259C217.404 145.33 222.868 134.779 221.587 125.05C220.668 118.032 216.534 111.789 212.545 105.69C211.627 104.287 210.684 102.883 209.789 101.479C202.319 89.6455 198.862 76.6985 195.502 64.2113C193.882 58.2097 192.214 52.1113 190.135 45.9161C184.091 28.4195 170.287 13.9721 154.066 8.18831C148.837 6.4542 143.352 5.6196 137.844 5.71992Z" fill="#3C4242"/>
<path d="M181.19 56.9756C181.19 56.9756 193.664 86.0156 189.942 108.764C189.064 115.138 186.348 121.117 182.128 125.97C177.907 130.823 172.364 134.338 166.177 136.085L168.595 175.943C168.595 175.943 170.07 196.319 144.903 194.746C137.622 194.277 130.58 191.957 124.442 188.007C118.304 184.056 113.274 178.605 109.826 172.168L102.355 99.0594C102.355 99.0594 129.601 80.982 125.491 54.8218C125.66 54.8218 160.303 68.9788 181.19 56.9756Z" fill="white"/>
<path d="M147.779 196.029H144.999C137.506 195.503 130.267 193.089 123.956 189.01C117.646 184.931 112.468 179.32 108.906 172.7C108.885 172.564 108.885 172.425 108.906 172.289L101.436 99.1805C101.422 98.959 101.467 98.7377 101.564 98.5383C101.661 98.3389 101.809 98.1683 101.992 98.0431C102.234 97.8737 128.585 80.0867 124.571 55.0155C124.545 54.8035 124.573 54.588 124.654 54.3904C124.735 54.1927 124.867 54.0195 125.035 53.8878C125.203 53.756 125.402 53.6703 125.613 53.6389C125.825 53.6075 126.04 53.6315 126.24 53.7087C126.578 53.7087 160.568 67.4785 180.706 55.9109C180.863 55.845 181.031 55.8111 181.201 55.8111C181.372 55.8111 181.54 55.845 181.697 55.9109C182.017 56.0346 182.277 56.2774 182.422 56.5885C182.93 57.7743 194.993 86.1367 191.246 109.054C190.335 115.474 187.636 121.507 183.459 126.463C179.282 131.419 173.795 135.097 167.627 137.078L170.045 175.967C170.144 178.579 169.727 181.184 168.818 183.634C167.91 186.084 166.528 188.331 164.75 190.245C160.81 194.069 155.129 196.029 147.779 196.029ZM111.179 171.829C114.564 178.022 119.452 183.263 125.392 187.069C131.332 190.875 138.133 193.124 145.169 193.609C153.122 194.117 159.093 192.399 162.937 188.551C166.027 185.15 167.682 180.684 167.555 176.088L165.137 136.231C165.124 135.944 165.21 135.661 165.382 135.432C165.554 135.202 165.801 135.04 166.08 134.972C172.048 133.32 177.396 129.94 181.452 125.255C185.508 120.571 188.091 114.792 188.877 108.643C192.068 89.0407 182.978 64.4777 180.706 58.7423C162.115 68.4223 134.773 59.4925 127.231 56.7579C129.648 80.0867 107.891 96.8573 103.926 99.7129L111.179 171.829Z" fill="#3C4242"/>
<path d="M167.723 110.966C165.688 110.95 163.658 110.764 161.655 110.409C161.499 110.378 161.351 110.315 161.22 110.227C161.088 110.138 160.975 110.024 160.888 109.891C160.8 109.758 160.74 109.61 160.71 109.454C160.679 109.298 160.68 109.137 160.712 108.982C160.741 108.824 160.801 108.674 160.889 108.541C160.977 108.408 161.091 108.293 161.224 108.205C161.357 108.117 161.507 108.057 161.664 108.028C161.821 107.999 161.983 108.003 162.138 108.038C162.138 108.038 170.189 109.587 173.984 107.312C174.564 104.166 166.949 93.7114 161.389 87.25C161.177 87.0061 161.071 86.688 161.094 86.3658C161.116 86.0436 161.266 85.7436 161.51 85.5318C161.753 85.32 162.071 85.2137 162.393 85.2364C162.715 85.2591 163.015 85.4089 163.226 85.6528C165.644 88.4116 177.296 102.375 176.474 107.433C176.428 107.824 176.292 108.2 176.079 108.531C175.865 108.863 175.579 109.141 175.241 109.345C172.918 110.528 170.327 111.087 167.723 110.966Z" fill="#3C4242"/>
<path d="M158.924 123.986C157.457 123.988 155.992 123.858 154.548 123.598C147.697 122.381 141.511 118.74 137.118 113.338C136.973 113.055 136.945 112.726 137.04 112.423C137.135 112.119 137.345 111.865 137.626 111.716C137.909 111.568 138.239 111.535 138.545 111.626C138.852 111.716 139.112 111.922 139.27 112.2C143.339 116.965 148.937 120.165 155.104 121.251C163.275 122.582 171.398 119.581 179.279 112.321C179.392 112.2 179.529 112.104 179.681 112.038C179.833 111.972 179.997 111.938 180.163 111.938C180.329 111.938 180.493 111.972 180.645 112.039C180.797 112.105 180.933 112.202 181.046 112.323C181.159 112.445 181.246 112.588 181.301 112.744C181.357 112.901 181.379 113.067 181.368 113.232C181.356 113.398 181.311 113.559 181.234 113.706C181.158 113.853 181.052 113.983 180.923 114.088C173.767 120.67 166.418 123.986 158.924 123.986Z" fill="#3C4242"/>
<path d="M166.178 136.085C166.178 136.085 145.098 140.127 132.672 137.779C132.672 137.779 147.999 168.32 168.209 166.819L166.178 136.085Z" fill="#3C4242"/>
<path d="M166.829 168.126C146.836 168.126 132.259 139.57 131.63 138.312C131.535 138.111 131.496 137.887 131.517 137.666C131.539 137.444 131.619 137.233 131.751 137.053C131.882 136.87 132.064 136.728 132.275 136.647C132.485 136.565 132.715 136.547 132.936 136.594C145.023 138.868 165.789 134.948 166.007 134.9C166.176 134.867 166.35 134.872 166.517 134.914C166.684 134.956 166.84 135.033 166.974 135.142C167.107 135.246 167.217 135.378 167.296 135.528C167.375 135.678 167.422 135.843 167.433 136.013L169.464 166.771C169.477 166.93 169.459 167.09 169.41 167.242C169.361 167.394 169.283 167.535 169.18 167.656C169.076 167.777 168.95 167.877 168.808 167.95C168.666 168.022 168.511 168.066 168.352 168.078L166.829 168.126ZM134.966 139.328C138.738 145.935 151.333 165.706 166.853 165.706L164.992 137.513C160.568 138.312 145.724 140.635 134.966 139.328Z" fill="#3C4242"/>
<path d="M288.187 137.489L340.574 134.924L314.32 246.099L257.992 251.64L288.187 137.489Z" fill="#3C4242"/>
<path d="M258.04 252.85C257.866 252.854 257.694 252.818 257.535 252.747C257.376 252.676 257.235 252.571 257.121 252.439C256.992 252.288 256.901 252.108 256.855 251.914C256.809 251.721 256.809 251.519 256.856 251.326L287.05 137.199C287.113 136.949 287.256 136.726 287.456 136.565C287.657 136.403 287.905 136.311 288.162 136.303L340.525 133.714C340.714 133.698 340.903 133.73 341.076 133.806C341.249 133.882 341.4 134 341.516 134.149C341.639 134.295 341.725 134.467 341.767 134.652C341.809 134.838 341.806 135.03 341.758 135.214L315.528 246.389C315.469 246.634 315.334 246.855 315.144 247.02C314.953 247.184 314.716 247.286 314.465 247.309L258.04 252.85ZM289.178 138.675L259.636 250.261L313.401 244.985L339.075 136.206L289.178 138.675Z" fill="#3C4242"/>
<path d="M220.111 232.45C219.803 232.45 219.506 232.333 219.281 232.121C219.056 231.91 218.921 231.621 218.902 231.312C217.852 215.292 214.312 199.534 208.41 184.606C208.28 184.314 208.27 183.982 208.383 183.683C208.496 183.383 208.724 183.141 209.015 183.009C209.159 182.941 209.315 182.903 209.474 182.896C209.633 182.89 209.792 182.916 209.941 182.972C210.09 183.029 210.226 183.115 210.341 183.225C210.456 183.335 210.548 183.468 210.61 183.614C216.635 198.801 220.249 214.838 221.32 231.143C221.34 231.467 221.232 231.785 221.019 232.029C220.807 232.274 220.507 232.425 220.184 232.45H220.111Z" fill="#3C4242"/>
<path d="M137.918 85.338C137.798 85.3615 137.675 85.3615 137.555 85.338C137.252 85.2431 136.998 85.0324 136.849 84.7516C136.699 84.4708 136.667 84.1425 136.757 83.8376C137.742 80.7172 139.913 78.1095 142.801 76.5776C144.254 76.0105 145.816 75.7749 147.371 75.8879C148.927 76.0009 150.438 76.4598 151.794 77.231C152.06 77.3823 152.258 77.6287 152.35 77.9206C152.441 78.2125 152.419 78.5283 152.287 78.8044C152.155 79.0804 151.924 79.2963 151.64 79.4085C151.355 79.5207 151.039 79.5208 150.755 79.409C149.706 78.8018 148.536 78.4328 147.329 78.3283C146.121 78.2237 144.906 78.3861 143.768 78.804C141.547 80.0088 139.87 82.0171 139.078 84.4184C139.014 84.6787 138.865 84.9103 138.655 85.0768C138.445 85.2432 138.186 85.3351 137.918 85.338Z" fill="#3C4242"/>
<path d="M171.399 78.175H171.182C170.866 78.1106 170.588 77.9251 170.408 77.6583C170.227 77.3915 170.158 77.0644 170.215 76.7472C170.405 75.7525 170.822 74.8154 171.435 74.0092C172.047 73.2031 172.838 72.5499 173.744 72.1008C175.872 71.2538 178.579 71.9314 181.456 74.0852C181.686 74.2821 181.834 74.5581 181.87 74.8587C181.906 75.1593 181.829 75.4626 181.653 75.7087C181.477 75.9549 181.215 76.126 180.919 76.1884C180.623 76.2507 180.314 76.1997 180.054 76.0454C177.806 74.424 175.944 73.8432 174.663 74.3272C174.132 74.6292 173.674 75.0432 173.319 75.5405C172.964 76.0378 172.721 76.6065 172.608 77.207C172.547 77.4823 172.394 77.7284 172.174 77.9045C171.955 78.0807 171.681 78.1761 171.399 78.175Z" fill="#3C4242"/>
<path d="M67.4708 105.884C67.4708 105.884 70.4201 114.741 61.0644 140.393C51.7087 166.045 52.0955 185.695 75.5694 189.229C99.0433 192.762 112.775 189.93 115.869 169.869C118.964 149.807 100.905 127.785 100.905 127.785" fill="white"/>
<path d="M90.2192 191.721C85.2536 191.659 80.2998 191.222 75.3999 190.414C66.7936 189.132 60.7015 185.574 57.3412 179.912C52.3611 171.49 53.2073 158.422 59.9279 139.957C68.9452 115.249 66.3584 106.344 66.3343 106.271C66.2835 106.112 66.2645 105.945 66.2783 105.778C66.2921 105.612 66.3385 105.45 66.4148 105.302C66.4911 105.154 66.5959 105.022 66.7231 104.914C66.8503 104.806 66.9975 104.725 67.1562 104.674C67.315 104.623 67.4822 104.604 67.6482 104.618C67.8143 104.631 67.9761 104.678 68.1242 104.754C68.2724 104.831 68.4041 104.936 68.5117 105.063C68.6194 105.19 68.701 105.338 68.7518 105.497C68.7518 105.884 71.7253 115.177 62.3212 140.804C55.8665 158.543 55.0687 170.933 59.5411 178.677C62.563 183.784 67.9057 186.833 75.8834 188.019C98.1969 191.382 111.735 189.471 114.805 169.748C117.779 150.557 100.3 128.753 100.107 128.608C100.004 128.486 99.9275 128.346 99.8805 128.194C99.8336 128.042 99.8175 127.883 99.8333 127.725C99.8491 127.567 99.8964 127.413 99.9724 127.274C100.048 127.135 100.152 127.012 100.276 126.914C100.523 126.713 100.84 126.618 101.157 126.65C101.474 126.682 101.765 126.837 101.968 127.083C102.718 128.003 120.341 149.928 117.174 170.207C114.515 186.567 104.748 191.721 90.2192 191.721Z" fill="#3C4242"/>
<path d="M320.075 251.64C339.415 224.173 339.415 224.173 338.327 214.711C337.481 207.451 333.854 201.087 330.059 195.085C325.224 187.438 314.659 175.725 310.719 191.334C308.761 198.836 305.739 208.056 307.818 215.752C309.752 222.867 315.07 228.699 317.996 235.378" fill="white"/>
<path d="M320.076 252.85C319.825 252.849 319.581 252.773 319.374 252.633C319.116 252.443 318.941 252.161 318.886 251.844C318.832 251.528 318.903 251.203 319.084 250.939C338.183 223.859 338.183 223.859 337.119 214.856C336.297 207.596 332.501 201.208 329.02 195.738C325.539 190.269 320.027 184.389 316.449 184.921C314.032 185.308 312.533 188.793 311.783 191.649L311.082 194.262C309.245 201.135 307.118 208.927 308.907 215.437C310.235 219.504 312.14 223.359 314.564 226.884C316.225 229.45 317.711 232.127 319.012 234.894C319.14 235.189 319.146 235.523 319.028 235.823C318.91 236.122 318.678 236.363 318.383 236.491C318.088 236.62 317.755 236.625 317.455 236.507C317.156 236.389 316.916 236.157 316.788 235.862C315.528 233.195 314.091 230.616 312.485 228.142C309.936 224.417 307.941 220.341 306.562 216.042C304.628 208.903 306.828 200.772 308.762 193.609L309.463 191.019C310.792 185.841 313.016 182.985 316.062 182.501C322.372 181.509 329.141 191.358 331.075 194.407C334.701 200.119 338.618 206.846 339.536 214.542C340.697 224.464 340.697 224.464 321.067 252.318C320.958 252.482 320.811 252.617 320.638 252.71C320.465 252.802 320.272 252.851 320.076 252.85Z" fill="#3C4242"/>
<path d="M82.6289 288.86C82.6289 288.86 169.417 369.156 194.221 359.984C219.024 350.812 247.913 312.528 264.933 285.835C281.952 259.143 303.999 222.262 307.239 205.83C310.478 189.398 305.402 177.129 299.261 180.202C293.121 183.276 270.13 205.806 270.13 205.806C270.13 205.806 277.89 183.784 274.264 183.687C270.638 183.59 259.953 193.367 256.399 224.827L182.665 299.847L122.228 240.847" fill="white"/>
<path d="M189.821 361.871C160.158 361.871 85.1671 292.829 81.8068 289.731C81.6935 289.619 81.6035 289.485 81.5422 289.337C81.4808 289.19 81.4492 289.032 81.4492 288.872C81.4492 288.712 81.4808 288.554 81.5422 288.407C81.6035 288.259 81.6935 288.125 81.8068 288.013C82.0368 287.79 82.3446 287.665 82.665 287.665C82.9854 287.665 83.2932 287.79 83.5232 288.013C83.7408 288.231 105.474 308.293 129.939 326.951C162.044 351.441 184.14 362.501 193.882 358.895C221.998 348.513 254.658 299.895 263.99 285.23C281.468 257.811 302.96 221.729 306.127 205.66C308.544 193.923 306.32 184.219 302.911 181.63C302.502 181.271 301.991 181.049 301.45 180.993C300.909 180.936 300.364 181.049 299.889 181.315C293.967 184.268 271.266 206.532 271.024 206.749C270.834 206.942 270.583 207.062 270.313 207.088C270.044 207.115 269.774 207.046 269.55 206.895C269.317 206.754 269.14 206.538 269.048 206.283C268.955 206.027 268.953 205.748 269.042 205.491C272.016 197.045 274.627 187.075 274.022 184.994C271.605 185.502 261.234 193.343 257.656 224.899C257.613 225.168 257.496 225.42 257.317 225.625L183.584 300.645C183.473 300.758 183.342 300.848 183.196 300.909C183.051 300.97 182.895 301.001 182.737 301.001C182.58 301.001 182.424 300.97 182.278 300.909C182.133 300.848 182.002 300.758 181.891 300.645L121.454 241.646C121.223 241.421 121.091 241.114 121.086 240.792C121.082 240.469 121.205 240.159 121.43 239.928C121.654 239.696 121.961 239.564 122.283 239.56C122.605 239.555 122.915 239.679 123.146 239.903L182.834 297.983L255.359 224.101C259.01 192.81 269.864 182.428 274.336 182.428C274.651 182.427 274.961 182.506 275.236 182.659C275.511 182.811 275.742 183.032 275.908 183.3C277.528 185.72 275.062 194.77 272.91 201.425C279.679 194.916 293.991 181.436 298.802 179.04C299.683 178.573 300.681 178.374 301.673 178.469C302.666 178.564 303.609 178.947 304.386 179.573C309.076 183.179 310.817 194.286 308.496 205.999C305.256 222.455 283.62 258.804 266.02 286.416C253.933 305.413 222.747 350.691 194.704 361.049C193.139 361.616 191.485 361.895 189.821 361.871Z" fill="#3C4242"/>
<path d="M142.945 101.649C139.734 101.667 136.584 100.769 133.864 99.0618C131.143 97.3544 128.964 94.9074 127.58 92.0064C126.197 89.1055 125.667 85.8704 126.052 82.6791C126.436 79.4877 127.72 76.4719 129.753 73.9837C131.787 71.4956 134.485 69.6378 137.533 68.6275C140.582 67.6172 143.855 67.496 146.969 68.278C150.084 69.0601 152.912 70.7131 155.123 73.0441C157.335 75.375 158.838 78.2877 159.457 81.4418C160.323 85.813 159.433 90.3496 156.98 94.0685C154.527 97.7875 150.71 100.389 146.354 101.31C145.231 101.53 144.09 101.644 142.945 101.649ZM142.945 70.4066C141.979 70.3965 141.014 70.4939 140.069 70.697C137.239 71.2412 134.635 72.6168 132.59 74.6483C130.544 76.6798 129.149 79.2751 128.583 82.1033C128.017 84.9315 128.305 87.8644 129.411 90.528C130.517 93.1916 132.39 95.4651 134.792 97.0588C137.193 98.6524 140.015 99.4939 142.896 99.4759C145.777 99.4579 148.588 98.5812 150.97 96.9577C153.351 95.3342 155.196 93.0374 156.269 90.3602C157.341 87.683 157.592 84.7467 156.991 81.9258C156.31 78.6963 154.55 75.7955 152.001 73.7015C149.452 71.6076 146.267 70.4454 142.97 70.4066H142.945Z" fill="#3C4242"/>
<path d="M178.604 94.3405C175.581 94.3038 172.624 93.4573 170.038 91.8889C167.453 90.3206 165.335 88.0876 163.904 85.4223C162.472 82.7569 161.781 79.7565 161.9 76.7328C162.019 73.7091 162.946 70.7727 164.582 68.2287C166.434 65.4644 169.059 63.3075 172.128 62.0272C175.197 60.7469 178.575 60.4001 181.84 61.03C185.105 61.6599 188.112 63.2386 190.486 65.569C192.86 67.8994 194.495 70.8782 195.188 74.1335C196.054 78.5047 195.164 83.0413 192.711 86.7602C190.258 90.4792 186.441 93.0809 182.085 94.0017C180.938 94.2271 179.773 94.3406 178.604 94.3405ZM178.604 63.0983C177.63 63.0991 176.658 63.1964 175.703 63.3887C172.873 63.933 170.27 65.3085 168.224 67.34C166.179 69.3715 164.784 71.9668 164.218 74.795C163.651 77.6232 163.94 80.5561 165.045 83.2197C166.151 85.8833 168.024 88.1568 170.426 89.7505C172.828 91.3441 175.649 92.1856 178.53 92.1676C181.412 92.1496 184.223 91.2729 186.604 89.6494C188.986 88.0259 190.83 85.7291 191.903 83.0519C192.975 80.3747 193.227 77.4384 192.625 74.6175C191.945 71.392 190.189 68.4943 187.645 66.4008C185.101 64.3072 181.921 63.1426 178.628 63.0983H178.604Z" fill="#3C4242"/>
<path d="M157.981 81.466C157.76 81.4707 157.542 81.4119 157.353 81.2966C157.216 81.2168 157.097 81.1106 157.003 80.9842C156.908 80.8578 156.839 80.7137 156.801 80.5604C156.763 80.407 156.755 80.2476 156.78 80.0914C156.804 79.9353 156.859 79.7855 156.942 79.651C157.281 79.1072 157.726 78.6365 158.249 78.2661C158.772 77.8957 159.363 77.6331 159.988 77.4935C160.614 77.3539 161.26 77.3401 161.891 77.4529C162.522 77.5657 163.124 77.8028 163.662 78.1505C163.906 78.3178 164.081 78.5689 164.152 78.8562C164.224 79.1435 164.188 79.4471 164.051 79.7096C163.914 79.972 163.685 80.175 163.409 80.2802C163.132 80.3853 162.827 80.3853 162.55 80.2801C160.133 79.0459 159.117 80.6915 159.021 80.8851C158.912 81.0635 158.759 81.2108 158.577 81.3125C158.395 81.4143 158.19 81.4672 157.981 81.466Z" fill="#3C4242"/>
<path d="M127.062 84.854L98.0273 88.3872L127.062 84.854Z" fill="white"/>
<path d="M98.0295 89.5973C97.709 89.6166 97.3939 89.5076 97.1536 89.2943C96.9133 89.081 96.7675 88.7808 96.7483 88.4599C96.729 88.139 96.8379 87.8236 97.051 87.5831C97.2641 87.3425 97.5639 87.1966 97.8845 87.1773L126.894 83.6199C127.052 83.5998 127.212 83.6115 127.365 83.6545C127.518 83.6975 127.661 83.7708 127.785 83.8702C127.909 83.9695 128.012 84.0929 128.087 84.2328C128.163 84.3727 128.209 84.5264 128.224 84.6847C128.265 85.0023 128.179 85.3234 127.984 85.5774C127.789 85.8314 127.502 85.9978 127.185 86.0399L98.1746 89.5731L98.0295 89.5973Z" fill="#3C4242"/>
<path d="M100.179 98.9384C100.179 98.9384 90.2676 65.4214 103.54 42.6008C114.539 23.6764 143.477 10.5842 164.775 9.88237C159.649 5.63233 153.416 2.93885 146.811 2.11984C140.205 1.30084 133.504 2.39048 127.497 5.26016C105.401 14.9402 93.6521 25.8544 89.2765 45.6984C83.0393 74.3996 100.179 98.9384 100.179 98.9384Z" fill="#3C4242"/>
<path d="M100.18 100.1C99.9865 100.097 99.7966 100.05 99.6247 99.9619C99.4528 99.8738 99.3035 99.7472 99.1884 99.5919C99.0192 99.3257 81.8066 74.2787 88.1163 45.4081C92.3227 26.0481 103.25 14.4805 127.038 4.09873C133.283 1.16119 140.231 0.0566665 147.078 0.913363C153.924 1.77006 160.388 4.55285 165.718 8.93873C165.887 9.10554 166.004 9.31754 166.055 9.54933C166.107 9.78112 166.09 10.0229 166.008 10.2455C165.928 10.471 165.781 10.6664 165.587 10.805C165.392 10.9436 165.159 11.0187 164.92 11.0199C144.42 11.7701 115.627 24.2331 104.579 43.2301C91.7183 65.3247 101.243 98.2609 101.34 98.5997C101.42 98.8737 101.401 99.1673 101.286 99.4286C101.171 99.6899 100.968 99.902 100.711 100.028C100.54 100.085 100.36 100.11 100.18 100.1ZM142.897 3.05813C137.76 3.09518 132.687 4.20803 128.005 6.32513C105.015 16.3923 94.4985 27.5001 90.4612 45.9647C86.424 64.4293 92.6128 81.9017 97.1577 91.1219C95.0303 79.6269 92.9996 58.3309 102.5 41.9959C113.379 23.2893 140.794 10.6811 161.536 8.86614C156.039 5.12081 149.546 3.11427 142.897 3.10652V3.05813Z" fill="#3C4242"/>
<path d="M115.991 93.0335C115.991 93.0335 101.922 66.2199 89.1813 84.4667C76.4411 102.714 97.8601 120.622 110.044 118.202" fill="white"/>
<path d="M107.65 119.654C100.664 119.654 92.3476 114.814 87.6818 107.554C85.2266 104.041 83.9524 99.8378 84.0436 95.552C84.1349 91.2662 85.587 87.1209 88.1895 83.7166C91.5498 78.8766 95.442 76.4565 99.5276 76.8195C109.198 77.4245 116.74 91.7751 117.079 92.3801C117.223 92.6695 117.248 93.0041 117.149 93.3118C117.049 93.6196 116.833 93.8759 116.547 94.0257C116.264 94.1711 115.936 94.1992 115.633 94.1041C115.33 94.009 115.076 93.7983 114.927 93.5176C114.927 93.3724 107.675 79.7477 99.3825 79.2395C96.1431 79.0217 93.0245 81.0062 90.1718 85.096C87.8682 88.1177 86.5806 91.7925 86.4937 95.5926C86.4068 99.3928 87.5252 103.123 89.6883 106.247C94.3783 113.507 103.396 118.202 109.802 116.943C110.119 116.886 110.446 116.955 110.712 117.136C110.979 117.317 111.164 117.595 111.228 117.911C111.285 118.226 111.215 118.549 111.034 118.812C110.853 119.075 110.575 119.256 110.261 119.315C109.404 119.514 108.53 119.628 107.65 119.654Z" fill="#3C4242"/>
<path d="M116.232 236.588C116.065 236.586 115.9 236.551 115.746 236.485C115.593 236.418 115.454 236.322 115.338 236.201C115.048 235.862 85.3852 203.676 65.0299 195.884C64.8649 195.842 64.7105 195.766 64.577 195.66C64.4434 195.555 64.3336 195.422 64.2547 195.271C64.1759 195.12 64.1298 194.954 64.1194 194.784C64.1091 194.614 64.1347 194.444 64.1946 194.284C64.2546 194.125 64.3475 193.98 64.4673 193.859C64.587 193.738 64.731 193.643 64.8897 193.582C65.0484 193.521 65.2183 193.493 65.3883 193.502C65.5582 193.511 65.7244 193.555 65.876 193.633C86.7874 201.74 115.894 233.2 117.127 234.555C117.35 234.785 117.475 235.094 117.475 235.414C117.475 235.735 117.35 236.043 117.127 236.273C117.007 236.384 116.866 236.468 116.712 236.522C116.558 236.576 116.395 236.599 116.232 236.588Z" fill="#3C4242"/>
<rect y="459" width="257" height="8" fill="#3C4242"/>
</svg>
