<svg width="38" height="38" viewBox="0 0 38 38" fill="none" xmlns="http://www.w3.org/2000/svg">
<circle cx="19" cy="19" r="19" fill="#0CEAEF"/>
<path d="M27.6239 14.6675C27.417 13.893 26.8071 13.2831 26.0326 13.0761C24.6287 12.7 19 12.7 19 12.7C19 12.7 13.3712 12.7 11.9674 13.0761C11.193 13.2831 10.583 13.893 10.3761 14.6675C10 16.0712 10 19.0001 10 19.0001C10 19.0001 10 21.9289 10.3761 23.3324C10.583 24.1069 11.193 24.717 11.9674 24.9239C13.3712 25.3 19 25.3 19 25.3C19 25.3 24.6287 25.3 26.0326 24.9239C26.8071 24.717 27.417 24.1069 27.6239 23.3324C28 21.9289 28 19.0001 28 19.0001C28 19.0001 28 16.0712 27.6239 14.6675ZM17.1999 21.7001V16.3L21.8763 19.0001L17.1999 21.7001Z" fill="black"/>
</svg>
